M48
INCH,TZ
T1C0.268
T2C0.378
T3C0.130
T4C0.303
T5C0.669
%
G90
G05
T1
X51220Y-42126
X51220Y-46890
X51220Y-51654
X51220Y-56398
X55965Y-42126
X55965Y-56398
X55984Y-46890
X55984Y-51634
T2
X39350Y-33150
X47362Y-33140
X55364Y-33140
T3
X37972Y-49272
X38374Y-62020
X38378Y-13795
X44980Y-41398
X44980Y-57146
X47480Y-42126
X47480Y-46890
X47480Y-51634
X47480Y-56398
X56378Y-13839
X56378Y-62067
T4
X53720Y-23386
T5
X40965Y-44528
X40984Y-54026
T0
M30
