G04 #@! TF.FileFunction,Copper,L2,Bot,Signal*
%FSLAX46Y46*%
G04 Gerber Fmt 4.6, Leading zero omitted, Abs format (unit mm)*
G04 Created by KiCad (PCBNEW 4.0.1-stable) date Samstag, 17. Dezember 2016 'u05' 12:05:26*
%MOMM*%
G01*
G04 APERTURE LIST*
%ADD10C,0.150000*%
%ADD11C,0.300000*%
%ADD12C,7.800000*%
%ADD13C,0.254000*%
G04 APERTURE END LIST*
D10*
D11*
X118053571Y-73346429D02*
X119125000Y-73346429D01*
X119339286Y-73275001D01*
X119482143Y-73132144D01*
X119553571Y-72917858D01*
X119553571Y-72775001D01*
X119553571Y-74275001D02*
X119482143Y-74132143D01*
X119410714Y-74060715D01*
X119267857Y-73989286D01*
X118839286Y-73989286D01*
X118696429Y-74060715D01*
X118625000Y-74132143D01*
X118553571Y-74275001D01*
X118553571Y-74489286D01*
X118625000Y-74632143D01*
X118696429Y-74703572D01*
X118839286Y-74775001D01*
X119267857Y-74775001D01*
X119410714Y-74703572D01*
X119482143Y-74632143D01*
X119553571Y-74489286D01*
X119553571Y-74275001D01*
X119553571Y-75417858D02*
X118053571Y-75417858D01*
X119553571Y-76060715D02*
X118767857Y-76060715D01*
X118625000Y-75989286D01*
X118553571Y-75846429D01*
X118553571Y-75632144D01*
X118625000Y-75489286D01*
X118696429Y-75417858D01*
X119553571Y-77417858D02*
X118767857Y-77417858D01*
X118625000Y-77346429D01*
X118553571Y-77203572D01*
X118553571Y-76917858D01*
X118625000Y-76775001D01*
X119482143Y-77417858D02*
X119553571Y-77275001D01*
X119553571Y-76917858D01*
X119482143Y-76775001D01*
X119339286Y-76703572D01*
X119196429Y-76703572D01*
X119053571Y-76775001D01*
X118982143Y-76917858D01*
X118982143Y-77275001D01*
X118910714Y-77417858D01*
X118553571Y-78132144D02*
X119553571Y-78132144D01*
X118696429Y-78132144D02*
X118625000Y-78203572D01*
X118553571Y-78346430D01*
X118553571Y-78560715D01*
X118625000Y-78703572D01*
X118767857Y-78775001D01*
X119553571Y-78775001D01*
X118553571Y-79489287D02*
X119553571Y-79489287D01*
X118696429Y-79489287D02*
X118625000Y-79560715D01*
X118553571Y-79703573D01*
X118553571Y-79917858D01*
X118625000Y-80060715D01*
X118767857Y-80132144D01*
X119553571Y-80132144D01*
X119482143Y-81417858D02*
X119553571Y-81275001D01*
X119553571Y-80989287D01*
X119482143Y-80846430D01*
X119339286Y-80775001D01*
X118767857Y-80775001D01*
X118625000Y-80846430D01*
X118553571Y-80989287D01*
X118553571Y-81275001D01*
X118625000Y-81417858D01*
X118767857Y-81489287D01*
X118910714Y-81489287D01*
X119053571Y-80775001D01*
X119482143Y-82060715D02*
X119553571Y-82203572D01*
X119553571Y-82489287D01*
X119482143Y-82632144D01*
X119339286Y-82703572D01*
X119267857Y-82703572D01*
X119125000Y-82632144D01*
X119053571Y-82489287D01*
X119053571Y-82275001D01*
X118982143Y-82132144D01*
X118839286Y-82060715D01*
X118767857Y-82060715D01*
X118625000Y-82132144D01*
X118553571Y-82275001D01*
X118553571Y-82489287D01*
X118625000Y-82632144D01*
X118767857Y-84489287D02*
X118767857Y-84989287D01*
X119553571Y-85203573D02*
X119553571Y-84489287D01*
X118053571Y-84489287D01*
X118053571Y-85203573D01*
X119553571Y-86060716D02*
X119482143Y-85917858D01*
X119339286Y-85846430D01*
X118053571Y-85846430D01*
X119553571Y-86846430D02*
X119482143Y-86703572D01*
X119339286Y-86632144D01*
X118053571Y-86632144D01*
X119553571Y-87417858D02*
X118553571Y-87417858D01*
X118053571Y-87417858D02*
X118125000Y-87346429D01*
X118196429Y-87417858D01*
X118125000Y-87489286D01*
X118053571Y-87417858D01*
X118196429Y-87417858D01*
X119482143Y-88703572D02*
X119553571Y-88560715D01*
X119553571Y-88275001D01*
X119482143Y-88132144D01*
X119339286Y-88060715D01*
X118767857Y-88060715D01*
X118625000Y-88132144D01*
X118553571Y-88275001D01*
X118553571Y-88560715D01*
X118625000Y-88703572D01*
X118767857Y-88775001D01*
X118910714Y-88775001D01*
X119053571Y-88060715D01*
X119482143Y-89346429D02*
X119553571Y-89489286D01*
X119553571Y-89775001D01*
X119482143Y-89917858D01*
X119339286Y-89989286D01*
X119267857Y-89989286D01*
X119125000Y-89917858D01*
X119053571Y-89775001D01*
X119053571Y-89560715D01*
X118982143Y-89417858D01*
X118839286Y-89346429D01*
X118767857Y-89346429D01*
X118625000Y-89417858D01*
X118553571Y-89560715D01*
X118553571Y-89775001D01*
X118625000Y-89917858D01*
X119482143Y-91203572D02*
X119553571Y-91060715D01*
X119553571Y-90775001D01*
X119482143Y-90632144D01*
X119339286Y-90560715D01*
X118767857Y-90560715D01*
X118625000Y-90632144D01*
X118553571Y-90775001D01*
X118553571Y-91060715D01*
X118625000Y-91203572D01*
X118767857Y-91275001D01*
X118910714Y-91275001D01*
X119053571Y-90560715D01*
X118553571Y-91917858D02*
X119553571Y-91917858D01*
X118696429Y-91917858D02*
X118625000Y-91989286D01*
X118553571Y-92132144D01*
X118553571Y-92346429D01*
X118625000Y-92489286D01*
X118767857Y-92560715D01*
X119553571Y-92560715D01*
X119482143Y-93346429D02*
X119553571Y-93346429D01*
X119696429Y-93275001D01*
X119767857Y-93203572D01*
X118196429Y-95060715D02*
X118125000Y-95132144D01*
X118053571Y-95275001D01*
X118053571Y-95632144D01*
X118125000Y-95775001D01*
X118196429Y-95846430D01*
X118339286Y-95917858D01*
X118482143Y-95917858D01*
X118696429Y-95846430D01*
X119553571Y-94989287D01*
X119553571Y-95917858D01*
X118053571Y-96846429D02*
X118053571Y-96989286D01*
X118125000Y-97132143D01*
X118196429Y-97203572D01*
X118339286Y-97275001D01*
X118625000Y-97346429D01*
X118982143Y-97346429D01*
X119267857Y-97275001D01*
X119410714Y-97203572D01*
X119482143Y-97132143D01*
X119553571Y-96989286D01*
X119553571Y-96846429D01*
X119482143Y-96703572D01*
X119410714Y-96632143D01*
X119267857Y-96560715D01*
X118982143Y-96489286D01*
X118625000Y-96489286D01*
X118339286Y-96560715D01*
X118196429Y-96632143D01*
X118125000Y-96703572D01*
X118053571Y-96846429D01*
X119553571Y-98775000D02*
X119553571Y-97917857D01*
X119553571Y-98346429D02*
X118053571Y-98346429D01*
X118267857Y-98203572D01*
X118410714Y-98060714D01*
X118482143Y-97917857D01*
X118053571Y-100060714D02*
X118053571Y-99775000D01*
X118125000Y-99632143D01*
X118196429Y-99560714D01*
X118410714Y-99417857D01*
X118696429Y-99346428D01*
X119267857Y-99346428D01*
X119410714Y-99417857D01*
X119482143Y-99489285D01*
X119553571Y-99632143D01*
X119553571Y-99917857D01*
X119482143Y-100060714D01*
X119410714Y-100132143D01*
X119267857Y-100203571D01*
X118910714Y-100203571D01*
X118767857Y-100132143D01*
X118696429Y-100060714D01*
X118625000Y-99917857D01*
X118625000Y-99632143D01*
X118696429Y-99489285D01*
X118767857Y-99417857D01*
X118910714Y-99346428D01*
D12*
X88825000Y-143150000D03*
X88825000Y-119025000D03*
X112975000Y-143150000D03*
X100900000Y-143175000D03*
X88850000Y-131100000D03*
X100900000Y-131075000D03*
X112950000Y-131100000D03*
X100900000Y-119025000D03*
X112975000Y-119025000D03*
D13*
G36*
X120715000Y-160190000D02*
X81060000Y-160190000D01*
X81060000Y-158051524D01*
X86432657Y-158051524D01*
X86733003Y-158778418D01*
X87288657Y-159335042D01*
X88015025Y-159636656D01*
X88801524Y-159637343D01*
X89528418Y-159336997D01*
X90085042Y-158781343D01*
X90386656Y-158054975D01*
X90387343Y-157268476D01*
X90086997Y-156541582D01*
X89531343Y-155984958D01*
X88804975Y-155683344D01*
X88018476Y-155682657D01*
X87291582Y-155983003D01*
X86734958Y-156538657D01*
X86433344Y-157265025D01*
X86432657Y-158051524D01*
X81060000Y-158051524D01*
X81060000Y-97002211D01*
X108172277Y-97002211D01*
X108806847Y-98537989D01*
X109980830Y-99714023D01*
X111515498Y-100351273D01*
X113177211Y-100352723D01*
X114712989Y-99718153D01*
X115889023Y-98544170D01*
X116526273Y-97009502D01*
X116527723Y-95347789D01*
X115893153Y-93812011D01*
X114719170Y-92635977D01*
X113184502Y-91998727D01*
X111522789Y-91997277D01*
X109987011Y-92631847D01*
X108810977Y-93805830D01*
X108173727Y-95340498D01*
X108172277Y-97002211D01*
X81060000Y-97002211D01*
X81060000Y-75402211D01*
X96747277Y-75402211D01*
X97381847Y-76937989D01*
X98555830Y-78114023D01*
X100090498Y-78751273D01*
X101752211Y-78752723D01*
X103287989Y-78118153D01*
X104464023Y-76944170D01*
X105101273Y-75409502D01*
X105102723Y-73747789D01*
X104468153Y-72212011D01*
X104431921Y-72175715D01*
X117140000Y-72175715D01*
X117140000Y-100874285D01*
X120310000Y-100874285D01*
X120310000Y-72175715D01*
X117140000Y-72175715D01*
X104431921Y-72175715D01*
X103294170Y-71035977D01*
X101759502Y-70398727D01*
X100097789Y-70397277D01*
X98562011Y-71031847D01*
X97385977Y-72205830D01*
X96748727Y-73740498D01*
X96747277Y-75402211D01*
X81060000Y-75402211D01*
X81060000Y-53827211D01*
X85297277Y-53827211D01*
X85931847Y-55362989D01*
X87105830Y-56539023D01*
X88640498Y-57176273D01*
X90302211Y-57177723D01*
X91837989Y-56543153D01*
X93014023Y-55369170D01*
X93651273Y-53834502D01*
X93652723Y-52172789D01*
X93018153Y-50637011D01*
X91844170Y-49460977D01*
X90309502Y-48823727D01*
X88647789Y-48822277D01*
X87112011Y-49456847D01*
X85935977Y-50630830D01*
X85298727Y-52165498D01*
X85297277Y-53827211D01*
X81060000Y-53827211D01*
X81060000Y-35511524D01*
X86412657Y-35511524D01*
X86713003Y-36238418D01*
X87268657Y-36795042D01*
X87995025Y-37096656D01*
X88781524Y-37097343D01*
X89508418Y-36796997D01*
X90065042Y-36241343D01*
X90366656Y-35514975D01*
X90367343Y-34728476D01*
X90066997Y-34001582D01*
X89511343Y-33444958D01*
X88784975Y-33143344D01*
X87998476Y-33142657D01*
X87271582Y-33443003D01*
X86714958Y-33998657D01*
X86413344Y-34725025D01*
X86412657Y-35511524D01*
X81060000Y-35511524D01*
X81060000Y-32360000D01*
X120715000Y-32360000D01*
X120715000Y-160190000D01*
X120715000Y-160190000D01*
G37*
X120715000Y-160190000D02*
X81060000Y-160190000D01*
X81060000Y-158051524D01*
X86432657Y-158051524D01*
X86733003Y-158778418D01*
X87288657Y-159335042D01*
X88015025Y-159636656D01*
X88801524Y-159637343D01*
X89528418Y-159336997D01*
X90085042Y-158781343D01*
X90386656Y-158054975D01*
X90387343Y-157268476D01*
X90086997Y-156541582D01*
X89531343Y-155984958D01*
X88804975Y-155683344D01*
X88018476Y-155682657D01*
X87291582Y-155983003D01*
X86734958Y-156538657D01*
X86433344Y-157265025D01*
X86432657Y-158051524D01*
X81060000Y-158051524D01*
X81060000Y-97002211D01*
X108172277Y-97002211D01*
X108806847Y-98537989D01*
X109980830Y-99714023D01*
X111515498Y-100351273D01*
X113177211Y-100352723D01*
X114712989Y-99718153D01*
X115889023Y-98544170D01*
X116526273Y-97009502D01*
X116527723Y-95347789D01*
X115893153Y-93812011D01*
X114719170Y-92635977D01*
X113184502Y-91998727D01*
X111522789Y-91997277D01*
X109987011Y-92631847D01*
X108810977Y-93805830D01*
X108173727Y-95340498D01*
X108172277Y-97002211D01*
X81060000Y-97002211D01*
X81060000Y-75402211D01*
X96747277Y-75402211D01*
X97381847Y-76937989D01*
X98555830Y-78114023D01*
X100090498Y-78751273D01*
X101752211Y-78752723D01*
X103287989Y-78118153D01*
X104464023Y-76944170D01*
X105101273Y-75409502D01*
X105102723Y-73747789D01*
X104468153Y-72212011D01*
X104431921Y-72175715D01*
X117140000Y-72175715D01*
X117140000Y-100874285D01*
X120310000Y-100874285D01*
X120310000Y-72175715D01*
X117140000Y-72175715D01*
X104431921Y-72175715D01*
X103294170Y-71035977D01*
X101759502Y-70398727D01*
X100097789Y-70397277D01*
X98562011Y-71031847D01*
X97385977Y-72205830D01*
X96748727Y-73740498D01*
X96747277Y-75402211D01*
X81060000Y-75402211D01*
X81060000Y-53827211D01*
X85297277Y-53827211D01*
X85931847Y-55362989D01*
X87105830Y-56539023D01*
X88640498Y-57176273D01*
X90302211Y-57177723D01*
X91837989Y-56543153D01*
X93014023Y-55369170D01*
X93651273Y-53834502D01*
X93652723Y-52172789D01*
X93018153Y-50637011D01*
X91844170Y-49460977D01*
X90309502Y-48823727D01*
X88647789Y-48822277D01*
X87112011Y-49456847D01*
X85935977Y-50630830D01*
X85298727Y-52165498D01*
X85297277Y-53827211D01*
X81060000Y-53827211D01*
X81060000Y-35511524D01*
X86412657Y-35511524D01*
X86713003Y-36238418D01*
X87268657Y-36795042D01*
X87995025Y-37096656D01*
X88781524Y-37097343D01*
X89508418Y-36796997D01*
X90065042Y-36241343D01*
X90366656Y-35514975D01*
X90367343Y-34728476D01*
X90066997Y-34001582D01*
X89511343Y-33444958D01*
X88784975Y-33143344D01*
X87998476Y-33142657D01*
X87271582Y-33443003D01*
X86714958Y-33998657D01*
X86413344Y-34725025D01*
X86412657Y-35511524D01*
X81060000Y-35511524D01*
X81060000Y-32360000D01*
X120715000Y-32360000D01*
X120715000Y-160190000D01*
M02*
