G04 #@! TF.FileFunction,Copper,L2,Bot,Signal*
%FSLAX46Y46*%
G04 Gerber Fmt 4.6, Leading zero omitted, Abs format (unit mm)*
G04 Created by KiCad (PCBNEW 4.0.1-stable) date Donnerstag, 28. April 2016 'u40' 09:40:48*
%MOMM*%
G01*
G04 APERTURE LIST*
%ADD10C,0.100000*%
%ADD11C,0.250000*%
%ADD12C,7.800000*%
%ADD13C,0.254000*%
G04 APERTURE END LIST*
D10*
D11*
X105152381Y-54050001D02*
X105866667Y-54050001D01*
X106009524Y-54002381D01*
X106104762Y-53907143D01*
X106152381Y-53764286D01*
X106152381Y-53669048D01*
X106152381Y-54669048D02*
X106104762Y-54573810D01*
X106057143Y-54526191D01*
X105961905Y-54478572D01*
X105676190Y-54478572D01*
X105580952Y-54526191D01*
X105533333Y-54573810D01*
X105485714Y-54669048D01*
X105485714Y-54811906D01*
X105533333Y-54907144D01*
X105580952Y-54954763D01*
X105676190Y-55002382D01*
X105961905Y-55002382D01*
X106057143Y-54954763D01*
X106104762Y-54907144D01*
X106152381Y-54811906D01*
X106152381Y-54669048D01*
X106152381Y-55430953D02*
X105152381Y-55430953D01*
X106152381Y-55859525D02*
X105628571Y-55859525D01*
X105533333Y-55811906D01*
X105485714Y-55716668D01*
X105485714Y-55573810D01*
X105533333Y-55478572D01*
X105580952Y-55430953D01*
X106057143Y-56335715D02*
X106104762Y-56383334D01*
X106152381Y-56335715D01*
X106104762Y-56288096D01*
X106057143Y-56335715D01*
X106152381Y-56335715D01*
X107278571Y-52359523D02*
X107278571Y-52692857D01*
X107802381Y-52835714D02*
X107802381Y-52359523D01*
X106802381Y-52359523D01*
X106802381Y-52835714D01*
X107802381Y-53407142D02*
X107754762Y-53311904D01*
X107659524Y-53264285D01*
X106802381Y-53264285D01*
X107802381Y-53930952D02*
X107754762Y-53835714D01*
X107659524Y-53788095D01*
X106802381Y-53788095D01*
X107802381Y-54311905D02*
X107135714Y-54311905D01*
X106802381Y-54311905D02*
X106850000Y-54264286D01*
X106897619Y-54311905D01*
X106850000Y-54359524D01*
X106802381Y-54311905D01*
X106897619Y-54311905D01*
X107754762Y-55169048D02*
X107802381Y-55073810D01*
X107802381Y-54883333D01*
X107754762Y-54788095D01*
X107659524Y-54740476D01*
X107278571Y-54740476D01*
X107183333Y-54788095D01*
X107135714Y-54883333D01*
X107135714Y-55073810D01*
X107183333Y-55169048D01*
X107278571Y-55216667D01*
X107373810Y-55216667D01*
X107469048Y-54740476D01*
X107754762Y-55597619D02*
X107802381Y-55692857D01*
X107802381Y-55883333D01*
X107754762Y-55978572D01*
X107659524Y-56026191D01*
X107611905Y-56026191D01*
X107516667Y-55978572D01*
X107469048Y-55883333D01*
X107469048Y-55740476D01*
X107421429Y-55645238D01*
X107326190Y-55597619D01*
X107278571Y-55597619D01*
X107183333Y-55645238D01*
X107135714Y-55740476D01*
X107135714Y-55883333D01*
X107183333Y-55978572D01*
X107754762Y-56835715D02*
X107802381Y-56740477D01*
X107802381Y-56550000D01*
X107754762Y-56454762D01*
X107659524Y-56407143D01*
X107278571Y-56407143D01*
X107183333Y-56454762D01*
X107135714Y-56550000D01*
X107135714Y-56740477D01*
X107183333Y-56835715D01*
X107278571Y-56883334D01*
X107373810Y-56883334D01*
X107469048Y-56407143D01*
X107135714Y-57311905D02*
X107802381Y-57311905D01*
X107230952Y-57311905D02*
X107183333Y-57359524D01*
X107135714Y-57454762D01*
X107135714Y-57597620D01*
X107183333Y-57692858D01*
X107278571Y-57740477D01*
X107802381Y-57740477D01*
X108547619Y-53335714D02*
X108500000Y-53383333D01*
X108452381Y-53478571D01*
X108452381Y-53716667D01*
X108500000Y-53811905D01*
X108547619Y-53859524D01*
X108642857Y-53907143D01*
X108738095Y-53907143D01*
X108880952Y-53859524D01*
X109452381Y-53288095D01*
X109452381Y-53907143D01*
X108452381Y-54526190D02*
X108452381Y-54621429D01*
X108500000Y-54716667D01*
X108547619Y-54764286D01*
X108642857Y-54811905D01*
X108833333Y-54859524D01*
X109071429Y-54859524D01*
X109261905Y-54811905D01*
X109357143Y-54764286D01*
X109404762Y-54716667D01*
X109452381Y-54621429D01*
X109452381Y-54526190D01*
X109404762Y-54430952D01*
X109357143Y-54383333D01*
X109261905Y-54335714D01*
X109071429Y-54288095D01*
X108833333Y-54288095D01*
X108642857Y-54335714D01*
X108547619Y-54383333D01*
X108500000Y-54430952D01*
X108452381Y-54526190D01*
X109452381Y-55811905D02*
X109452381Y-55240476D01*
X109452381Y-55526190D02*
X108452381Y-55526190D01*
X108595238Y-55430952D01*
X108690476Y-55335714D01*
X108738095Y-55240476D01*
X108452381Y-56669048D02*
X108452381Y-56478571D01*
X108500000Y-56383333D01*
X108547619Y-56335714D01*
X108690476Y-56240476D01*
X108880952Y-56192857D01*
X109261905Y-56192857D01*
X109357143Y-56240476D01*
X109404762Y-56288095D01*
X109452381Y-56383333D01*
X109452381Y-56573810D01*
X109404762Y-56669048D01*
X109357143Y-56716667D01*
X109261905Y-56764286D01*
X109023810Y-56764286D01*
X108928571Y-56716667D01*
X108880952Y-56669048D01*
X108833333Y-56573810D01*
X108833333Y-56383333D01*
X108880952Y-56288095D01*
X108928571Y-56240476D01*
X109023810Y-56192857D01*
D12*
X104950000Y-61800000D03*
X104950000Y-48050000D03*
X104950000Y-75550000D03*
X105000000Y-89250000D03*
X104950000Y-103000000D03*
X104950000Y-116700000D03*
X104950000Y-144200000D03*
X104950000Y-130450000D03*
D13*
G36*
X109663000Y-51859428D02*
X104488000Y-51859428D01*
X104488000Y-58240572D01*
X109663000Y-58240572D01*
X109663000Y-160313000D01*
X100187000Y-160313000D01*
X100187000Y-157991524D01*
X105552657Y-157991524D01*
X105853003Y-158718418D01*
X106408657Y-159275042D01*
X107135025Y-159576656D01*
X107921524Y-159577343D01*
X108648418Y-159276997D01*
X109205042Y-158721343D01*
X109506656Y-157994975D01*
X109507343Y-157208476D01*
X109206997Y-156481582D01*
X108651343Y-155924958D01*
X107924975Y-155623344D01*
X107138476Y-155622657D01*
X106411582Y-155923003D01*
X105854958Y-156478657D01*
X105553344Y-157205025D01*
X105552657Y-157991524D01*
X100187000Y-157991524D01*
X100187000Y-35491524D01*
X105542657Y-35491524D01*
X105843003Y-36218418D01*
X106398657Y-36775042D01*
X107125025Y-37076656D01*
X107911524Y-37077343D01*
X108638418Y-36776997D01*
X109195042Y-36221343D01*
X109496656Y-35494975D01*
X109497343Y-34708476D01*
X109196997Y-33981582D01*
X108641343Y-33424958D01*
X107914975Y-33123344D01*
X107128476Y-33122657D01*
X106401582Y-33423003D01*
X105844958Y-33978657D01*
X105543344Y-34705025D01*
X105542657Y-35491524D01*
X100187000Y-35491524D01*
X100187000Y-32287000D01*
X109663000Y-32287000D01*
X109663000Y-51859428D01*
X109663000Y-51859428D01*
G37*
X109663000Y-51859428D02*
X104488000Y-51859428D01*
X104488000Y-58240572D01*
X109663000Y-58240572D01*
X109663000Y-160313000D01*
X100187000Y-160313000D01*
X100187000Y-157991524D01*
X105552657Y-157991524D01*
X105853003Y-158718418D01*
X106408657Y-159275042D01*
X107135025Y-159576656D01*
X107921524Y-159577343D01*
X108648418Y-159276997D01*
X109205042Y-158721343D01*
X109506656Y-157994975D01*
X109507343Y-157208476D01*
X109206997Y-156481582D01*
X108651343Y-155924958D01*
X107924975Y-155623344D01*
X107138476Y-155622657D01*
X106411582Y-155923003D01*
X105854958Y-156478657D01*
X105553344Y-157205025D01*
X105552657Y-157991524D01*
X100187000Y-157991524D01*
X100187000Y-35491524D01*
X105542657Y-35491524D01*
X105843003Y-36218418D01*
X106398657Y-36775042D01*
X107125025Y-37076656D01*
X107911524Y-37077343D01*
X108638418Y-36776997D01*
X109195042Y-36221343D01*
X109496656Y-35494975D01*
X109497343Y-34708476D01*
X109196997Y-33981582D01*
X108641343Y-33424958D01*
X107914975Y-33123344D01*
X107128476Y-33122657D01*
X106401582Y-33423003D01*
X105844958Y-33978657D01*
X105543344Y-34705025D01*
X105542657Y-35491524D01*
X100187000Y-35491524D01*
X100187000Y-32287000D01*
X109663000Y-32287000D01*
X109663000Y-51859428D01*
M02*
