G04 #@! TF.FileFunction,Soldermask,Top*
%FSLAX46Y46*%
G04 Gerber Fmt 4.6, Leading zero omitted, Abs format (unit mm)*
G04 Created by KiCad (PCBNEW 4.0.1-stable) date Donnerstag, 28. April 2016 'u40' 09:40:48*
%MOMM*%
G01*
G04 APERTURE LIST*
%ADD10C,0.100000*%
%ADD11C,3.300000*%
%ADD12C,7.800000*%
G04 APERTURE END LIST*
D10*
G36*
X100027108Y-150206132D02*
X100027108Y-151630127D01*
X100113127Y-151630127D01*
X109766923Y-151630127D01*
X109852942Y-151630127D01*
X109852942Y-150206132D01*
X109766923Y-150206132D01*
X100113127Y-150206132D01*
X100027108Y-150206132D01*
X100027108Y-150206132D01*
G37*
G36*
X100023502Y-40593205D02*
X100023502Y-42017202D01*
X100109052Y-42017202D01*
X109710621Y-42017202D01*
X109796174Y-42017202D01*
X109796174Y-40593205D01*
X109710621Y-40593205D01*
X100109052Y-40593205D01*
X100023502Y-40593205D01*
X100023502Y-40593205D01*
G37*
G36*
X106980294Y-94068316D02*
X106974198Y-94088619D01*
X106968550Y-94109001D01*
X106963341Y-94129459D01*
X106958560Y-94149994D01*
X106954197Y-94170602D01*
X106950244Y-94191283D01*
X106946688Y-94212036D01*
X106943522Y-94232858D01*
X106940735Y-94253748D01*
X106938317Y-94274705D01*
X106936259Y-94295727D01*
X106934550Y-94316812D01*
X106933181Y-94337960D01*
X106932141Y-94359169D01*
X106931421Y-94380436D01*
X106931012Y-94401762D01*
X106930903Y-94423143D01*
X106931084Y-94444579D01*
X106931546Y-94466068D01*
X106932278Y-94487609D01*
X106933272Y-94509200D01*
X106934516Y-94530840D01*
X106936001Y-94552527D01*
X106937718Y-94574259D01*
X106939656Y-94596036D01*
X106941806Y-94617855D01*
X106944157Y-94639715D01*
X106946700Y-94661615D01*
X106949426Y-94683553D01*
X106952323Y-94705528D01*
X106955383Y-94727538D01*
X106958595Y-94749581D01*
X106961950Y-94771657D01*
X106965437Y-94793763D01*
X106969048Y-94815898D01*
X106972771Y-94838061D01*
X106976598Y-94860250D01*
X106980518Y-94882464D01*
X106984521Y-94904700D01*
X106988598Y-94926959D01*
X106992739Y-94949237D01*
X106996934Y-94971534D01*
X107001173Y-94993848D01*
X107005446Y-95016178D01*
X107009743Y-95038521D01*
X107014055Y-95060878D01*
X107018372Y-95083245D01*
X107022683Y-95105622D01*
X107026979Y-95128007D01*
X107031251Y-95150398D01*
X107035487Y-95172795D01*
X107039679Y-95195195D01*
X107043817Y-95217598D01*
X107047890Y-95240000D01*
X107051889Y-95262402D01*
X107055804Y-95284802D01*
X107059625Y-95307197D01*
X107063342Y-95329587D01*
X107066946Y-95351970D01*
X107070426Y-95374345D01*
X107073773Y-95396710D01*
X107076977Y-95419063D01*
X107080028Y-95441403D01*
X107082916Y-95463729D01*
X107085631Y-95486039D01*
X107088164Y-95508331D01*
X107090504Y-95530605D01*
X107092642Y-95552858D01*
X107094568Y-95575089D01*
X107096272Y-95597296D01*
X107097744Y-95619479D01*
X107098974Y-95641635D01*
X107099953Y-95663763D01*
X107100670Y-95685862D01*
X107101116Y-95707929D01*
X107101281Y-95729964D01*
X107101156Y-95751965D01*
X107100729Y-95773931D01*
X107099991Y-95795860D01*
X107098934Y-95817750D01*
X107097545Y-95839600D01*
X107095817Y-95861408D01*
X107093738Y-95883174D01*
X107091300Y-95904895D01*
X107088492Y-95926570D01*
X107085304Y-95948198D01*
X107081726Y-95969776D01*
X107077749Y-95991304D01*
X107073364Y-96012780D01*
X107068559Y-96034203D01*
X107063325Y-96055570D01*
X107057652Y-96076881D01*
X107051531Y-96098134D01*
X107044951Y-96119327D01*
X107037903Y-96140460D01*
X107030377Y-96161530D01*
X107022362Y-96182535D01*
X107013850Y-96203476D01*
X107004830Y-96224349D01*
X106995293Y-96245153D01*
X106985228Y-96265888D01*
X106974626Y-96286551D01*
X106963477Y-96307141D01*
X106951770Y-96327656D01*
X106939497Y-96348096D01*
X106926647Y-96368457D01*
X106913211Y-96388740D01*
X106899178Y-96408942D01*
X106884539Y-96429062D01*
X106869283Y-96449099D01*
X106853402Y-96469050D01*
X106836885Y-96488915D01*
X106819722Y-96508692D01*
X106809878Y-96542249D01*
X106800073Y-96575216D01*
X106790306Y-96607593D01*
X106780577Y-96639380D01*
X106770888Y-96670574D01*
X106761237Y-96701177D01*
X106751625Y-96731186D01*
X106742051Y-96760602D01*
X106732517Y-96789423D01*
X106723021Y-96817649D01*
X106713564Y-96845279D01*
X106704147Y-96872313D01*
X106694768Y-96898750D01*
X106685429Y-96924589D01*
X106676128Y-96949829D01*
X106666867Y-96974470D01*
X106657645Y-96998511D01*
X106648462Y-97021951D01*
X106639319Y-97044789D01*
X106630215Y-97067026D01*
X106621150Y-97088660D01*
X106612125Y-97109690D01*
X106603139Y-97130117D01*
X106594193Y-97149938D01*
X106585286Y-97169154D01*
X106576419Y-97187763D01*
X106567592Y-97205765D01*
X106558805Y-97223160D01*
X106550057Y-97239947D01*
X106541349Y-97256124D01*
X106532681Y-97271691D01*
X106524053Y-97286648D01*
X106515465Y-97300994D01*
X106506916Y-97314728D01*
X106498408Y-97327850D01*
X106489940Y-97340358D01*
X106481512Y-97352252D01*
X106473124Y-97363532D01*
X106464777Y-97374196D01*
X106456470Y-97384244D01*
X106448203Y-97393675D01*
X106439976Y-97402489D01*
X106431790Y-97410684D01*
X106423644Y-97418261D01*
X106415539Y-97425218D01*
X106407475Y-97431555D01*
X106399451Y-97437271D01*
X106391467Y-97442366D01*
X106383524Y-97446838D01*
X106375622Y-97450687D01*
X106367761Y-97453912D01*
X106359941Y-97456512D01*
X106352161Y-97458488D01*
X106344423Y-97459838D01*
X106336725Y-97460561D01*
X106329068Y-97460657D01*
X106321453Y-97460125D01*
X106313878Y-97458964D01*
X106306345Y-97457174D01*
X106298853Y-97454754D01*
X106291402Y-97451703D01*
X106283992Y-97448021D01*
X106276624Y-97443706D01*
X106269297Y-97438759D01*
X106262012Y-97433178D01*
X106254768Y-97426963D01*
X106247565Y-97420113D01*
X106240404Y-97412627D01*
X106233285Y-97404505D01*
X106226207Y-97395746D01*
X106219171Y-97386349D01*
X106212176Y-97376314D01*
X106205224Y-97365640D01*
X106198313Y-97354326D01*
X106191444Y-97342371D01*
X106184618Y-97329775D01*
X106177833Y-97316537D01*
X106171090Y-97302657D01*
X106164389Y-97288133D01*
X106157730Y-97272965D01*
X106151113Y-97257153D01*
X106144539Y-97240695D01*
X106138007Y-97223591D01*
X106131517Y-97205840D01*
X106125069Y-97187441D01*
X106118664Y-97168395D01*
X106112301Y-97148699D01*
X106105981Y-97128354D01*
X106099703Y-97107359D01*
X106093468Y-97085712D01*
X106087275Y-97063414D01*
X106081125Y-97040463D01*
X106075018Y-97016860D01*
X106068954Y-96992602D01*
X106062932Y-96967690D01*
X106056953Y-96942123D01*
X106051017Y-96915900D01*
X106045124Y-96889020D01*
X106039274Y-96861483D01*
X106033466Y-96833288D01*
X106027702Y-96804434D01*
X106021981Y-96774921D01*
X106016304Y-96744748D01*
X106010669Y-96713914D01*
X106005078Y-96682418D01*
X105999530Y-96650260D01*
X105994025Y-96617440D01*
X105988564Y-96583955D01*
X105983146Y-96549807D01*
X105977771Y-96514993D01*
X105972440Y-96479514D01*
X105959552Y-96456259D01*
X105946752Y-96433842D01*
X105934041Y-96412257D01*
X105921422Y-96391495D01*
X105908895Y-96371546D01*
X105896461Y-96352403D01*
X105884123Y-96334057D01*
X105871880Y-96316499D01*
X105859734Y-96299722D01*
X105847687Y-96283716D01*
X105835740Y-96268474D01*
X105823893Y-96253986D01*
X105812148Y-96240244D01*
X105800507Y-96227240D01*
X105788971Y-96214965D01*
X105777540Y-96203410D01*
X105766216Y-96192568D01*
X105755000Y-96182429D01*
X105743895Y-96172986D01*
X105732899Y-96164230D01*
X105722016Y-96156151D01*
X105711246Y-96148743D01*
X105700590Y-96141996D01*
X105690050Y-96135901D01*
X105679627Y-96130451D01*
X105669322Y-96125636D01*
X105659137Y-96121449D01*
X105649072Y-96117881D01*
X105639128Y-96114923D01*
X105629308Y-96112567D01*
X105619612Y-96110805D01*
X105610042Y-96109627D01*
X105600599Y-96109026D01*
X105591283Y-96108992D01*
X105582096Y-96109518D01*
X105573040Y-96110595D01*
X105564116Y-96112215D01*
X105555325Y-96114368D01*
X105546667Y-96117047D01*
X105538145Y-96120243D01*
X105529760Y-96123947D01*
X105521513Y-96128151D01*
X105513404Y-96132847D01*
X105505436Y-96138026D01*
X105497609Y-96143680D01*
X105489925Y-96149799D01*
X105482385Y-96156377D01*
X105474991Y-96163403D01*
X105467742Y-96170870D01*
X105460642Y-96178769D01*
X105453690Y-96187092D01*
X105446889Y-96195830D01*
X105440238Y-96204974D01*
X105433741Y-96214517D01*
X105427397Y-96224449D01*
X105421208Y-96234763D01*
X105415176Y-96245449D01*
X105409301Y-96256500D01*
X105403585Y-96267906D01*
X105398029Y-96279660D01*
X105392634Y-96291752D01*
X105387401Y-96304175D01*
X105382332Y-96316919D01*
X105377429Y-96329977D01*
X105372691Y-96343339D01*
X105368120Y-96356998D01*
X105363719Y-96370945D01*
X105359487Y-96385171D01*
X105355426Y-96399668D01*
X105351537Y-96414428D01*
X105347822Y-96429441D01*
X105344282Y-96444700D01*
X105340918Y-96460196D01*
X105337731Y-96475920D01*
X105334722Y-96491864D01*
X105331893Y-96508019D01*
X105329245Y-96524378D01*
X105326779Y-96540931D01*
X105324497Y-96557670D01*
X105322399Y-96574587D01*
X105320487Y-96591672D01*
X105318762Y-96608919D01*
X105317225Y-96626317D01*
X105315878Y-96643859D01*
X105314722Y-96661536D01*
X105313757Y-96679339D01*
X105312986Y-96697261D01*
X105312410Y-96715292D01*
X105312029Y-96733425D01*
X105311845Y-96751650D01*
X105311859Y-96769959D01*
X105312072Y-96788344D01*
X105312486Y-96806796D01*
X105313102Y-96825307D01*
X105313921Y-96843868D01*
X105314945Y-96862471D01*
X105316174Y-96881107D01*
X105317609Y-96899768D01*
X105319253Y-96918445D01*
X105321106Y-96937130D01*
X105323169Y-96955814D01*
X105325444Y-96974490D01*
X105327932Y-96993147D01*
X105330634Y-97011778D01*
X105333552Y-97030375D01*
X105336686Y-97048928D01*
X105340038Y-97067430D01*
X105343609Y-97085872D01*
X105347401Y-97104245D01*
X105351414Y-97122541D01*
X105355649Y-97140752D01*
X105360109Y-97158868D01*
X105364794Y-97176882D01*
X105369706Y-97194785D01*
X105374845Y-97212569D01*
X105380213Y-97230224D01*
X105385811Y-97247743D01*
X105391641Y-97265117D01*
X105397703Y-97282338D01*
X105403999Y-97299396D01*
X105410531Y-97316285D01*
X105417298Y-97332994D01*
X105424303Y-97349516D01*
X105431547Y-97365842D01*
X105439031Y-97381963D01*
X105446757Y-97397872D01*
X105454724Y-97413560D01*
X105462936Y-97429017D01*
X105471392Y-97444236D01*
X105480094Y-97459209D01*
X105489044Y-97473926D01*
X105498243Y-97488379D01*
X105507691Y-97502560D01*
X105517391Y-97516461D01*
X105527343Y-97530072D01*
X105537548Y-97543385D01*
X105548008Y-97556392D01*
X105558724Y-97569085D01*
X105569698Y-97581454D01*
X105580993Y-97622345D01*
X105592020Y-97662215D01*
X105602787Y-97701088D01*
X105613299Y-97738991D01*
X105623565Y-97775948D01*
X105633591Y-97811984D01*
X105643384Y-97847127D01*
X105652952Y-97881400D01*
X105662301Y-97914830D01*
X105671440Y-97947441D01*
X105680374Y-97979260D01*
X105689111Y-98010311D01*
X105697658Y-98040620D01*
X105706023Y-98070213D01*
X105714212Y-98099115D01*
X105722232Y-98127351D01*
X105730091Y-98154947D01*
X105737796Y-98181928D01*
X105745353Y-98208320D01*
X105752770Y-98234149D01*
X105760055Y-98259438D01*
X105767213Y-98284215D01*
X105774253Y-98308505D01*
X105781181Y-98332332D01*
X105788004Y-98355722D01*
X105794731Y-98378702D01*
X105801366Y-98401295D01*
X105807919Y-98423529D01*
X105814396Y-98445427D01*
X105820803Y-98467016D01*
X105827149Y-98488321D01*
X105833440Y-98509368D01*
X105839684Y-98530181D01*
X105845887Y-98550787D01*
X105852056Y-98571210D01*
X105858200Y-98591477D01*
X105864324Y-98611612D01*
X105870436Y-98631641D01*
X105876543Y-98651590D01*
X105882653Y-98671484D01*
X105888771Y-98691348D01*
X105894906Y-98711208D01*
X105901065Y-98731090D01*
X105907254Y-98751018D01*
X105913481Y-98771018D01*
X105919753Y-98791116D01*
X105926077Y-98811337D01*
X105932460Y-98831706D01*
X105938909Y-98852249D01*
X105945431Y-98872992D01*
X105952034Y-98893959D01*
X105958725Y-98915177D01*
X105965510Y-98936670D01*
X105972397Y-98958465D01*
X105979392Y-98980586D01*
X105986504Y-99003059D01*
X105993739Y-99025909D01*
X106001104Y-99049163D01*
X106008606Y-99072844D01*
X106016253Y-99096980D01*
X106034730Y-99095991D01*
X106053651Y-99094875D01*
X106073003Y-99093631D01*
X106092775Y-99092256D01*
X106112954Y-99090750D01*
X106133528Y-99089112D01*
X106154485Y-99087341D01*
X106175812Y-99085435D01*
X106197498Y-99083394D01*
X106219530Y-99081216D01*
X106241896Y-99078900D01*
X106264584Y-99076446D01*
X106287582Y-99073851D01*
X106310877Y-99071115D01*
X106334458Y-99068236D01*
X106358312Y-99065214D01*
X106382426Y-99062048D01*
X106406790Y-99058736D01*
X106431390Y-99055277D01*
X106456214Y-99051669D01*
X106481250Y-99047913D01*
X106506487Y-99044007D01*
X106531911Y-99039949D01*
X106557511Y-99035738D01*
X106583274Y-99031374D01*
X106609189Y-99026855D01*
X106635242Y-99022180D01*
X106661422Y-99017348D01*
X106687717Y-99012358D01*
X106714115Y-99007209D01*
X106740602Y-99001899D01*
X106767168Y-98996428D01*
X106793800Y-98990794D01*
X106820485Y-98984996D01*
X106847212Y-98979033D01*
X106873968Y-98972904D01*
X106900742Y-98966608D01*
X106927520Y-98960143D01*
X106954291Y-98953509D01*
X106981043Y-98946705D01*
X107007763Y-98939729D01*
X107034439Y-98932579D01*
X107061059Y-98925256D01*
X107087611Y-98917758D01*
X107114082Y-98910083D01*
X107140461Y-98902231D01*
X107166736Y-98894201D01*
X107192893Y-98885991D01*
X107218921Y-98877600D01*
X107244808Y-98869027D01*
X107270541Y-98860271D01*
X107296108Y-98851331D01*
X107321498Y-98842206D01*
X107346697Y-98832894D01*
X107371695Y-98823395D01*
X107396477Y-98813707D01*
X107421033Y-98803829D01*
X107445350Y-98793761D01*
X107469417Y-98783500D01*
X107493219Y-98773046D01*
X107516747Y-98762398D01*
X107539987Y-98751554D01*
X107562927Y-98740513D01*
X107585555Y-98729275D01*
X107607859Y-98717838D01*
X107629826Y-98706201D01*
X107651445Y-98694363D01*
X107672703Y-98682323D01*
X107693588Y-98670079D01*
X107714088Y-98657631D01*
X107734191Y-98644977D01*
X107753884Y-98632117D01*
X107773156Y-98619048D01*
X107791993Y-98605770D01*
X107810385Y-98592283D01*
X107828318Y-98578584D01*
X107845781Y-98564672D01*
X107862761Y-98550547D01*
X107879246Y-98536208D01*
X107895224Y-98521652D01*
X107910683Y-98506880D01*
X107925611Y-98491890D01*
X107939994Y-98476680D01*
X107953823Y-98461250D01*
X107967083Y-98445599D01*
X107979763Y-98429724D01*
X107991850Y-98413627D01*
X108003333Y-98397304D01*
X108014199Y-98380756D01*
X108024437Y-98363980D01*
X108034033Y-98346976D01*
X108042976Y-98329743D01*
X108051253Y-98312279D01*
X108058853Y-98294584D01*
X108065763Y-98276655D01*
X108071970Y-98258493D01*
X108077464Y-98240096D01*
X108082231Y-98221463D01*
X108074294Y-98209255D01*
X108066173Y-98197455D01*
X108057871Y-98186059D01*
X108049392Y-98175059D01*
X108040740Y-98164452D01*
X108031918Y-98154230D01*
X108022931Y-98144387D01*
X108013783Y-98134919D01*
X108004477Y-98125820D01*
X107995017Y-98117082D01*
X107985407Y-98108702D01*
X107975651Y-98100672D01*
X107965753Y-98092988D01*
X107955717Y-98085642D01*
X107945546Y-98078631D01*
X107935245Y-98071947D01*
X107924817Y-98065584D01*
X107914266Y-98059538D01*
X107903597Y-98053803D01*
X107892812Y-98048371D01*
X107881917Y-98043239D01*
X107870914Y-98038399D01*
X107859808Y-98033846D01*
X107848602Y-98029575D01*
X107837300Y-98025579D01*
X107825907Y-98021853D01*
X107814426Y-98018391D01*
X107802861Y-98015187D01*
X107791216Y-98012235D01*
X107779495Y-98009529D01*
X107767701Y-98007065D01*
X107755839Y-98004835D01*
X107743912Y-98002834D01*
X107731924Y-98001057D01*
X107719880Y-97999497D01*
X107707782Y-97998149D01*
X107695636Y-97997007D01*
X107683444Y-97996064D01*
X107671211Y-97995316D01*
X107658941Y-97994757D01*
X107646636Y-97994380D01*
X107634303Y-97994181D01*
X107621943Y-97994152D01*
X107609561Y-97994288D01*
X107597162Y-97994584D01*
X107584748Y-97995034D01*
X107572323Y-97995632D01*
X107559893Y-97996371D01*
X107547459Y-97997247D01*
X107535027Y-97998254D01*
X107522600Y-97999385D01*
X107510183Y-98000635D01*
X107497778Y-98001998D01*
X107485390Y-98003469D01*
X107473022Y-98005041D01*
X107460680Y-98006708D01*
X107448365Y-98008466D01*
X107436083Y-98010308D01*
X107423837Y-98012227D01*
X107411631Y-98014220D01*
X107399470Y-98016279D01*
X107387356Y-98018399D01*
X107375293Y-98020574D01*
X107363287Y-98022798D01*
X107351339Y-98025066D01*
X107339455Y-98027372D01*
X107327639Y-98029709D01*
X107315893Y-98032073D01*
X107304222Y-98034456D01*
X107292631Y-98036855D01*
X107281121Y-98039262D01*
X107269699Y-98041672D01*
X107258367Y-98044079D01*
X107247129Y-98046477D01*
X107235990Y-98048861D01*
X107224952Y-98051224D01*
X107214021Y-98053561D01*
X107203199Y-98055867D01*
X107192492Y-98058134D01*
X107181901Y-98060359D01*
X107171433Y-98062534D01*
X107161089Y-98064653D01*
X107150875Y-98066712D01*
X107140794Y-98068704D01*
X107130850Y-98070624D01*
X107121047Y-98072465D01*
X107111389Y-98074222D01*
X107101879Y-98075890D01*
X107092522Y-98077461D01*
X107083321Y-98078931D01*
X107074280Y-98080294D01*
X107065404Y-98081544D01*
X107056696Y-98082674D01*
X107048159Y-98083680D01*
X107039798Y-98084556D01*
X107031617Y-98085295D01*
X107023620Y-98085892D01*
X107015809Y-98086341D01*
X107008190Y-98086637D01*
X107000767Y-98086773D01*
X106993542Y-98086743D01*
X106986520Y-98086543D01*
X106979705Y-98086165D01*
X106973101Y-98085605D01*
X106966711Y-98084857D01*
X106960539Y-98083914D01*
X106954590Y-98082771D01*
X106948867Y-98081422D01*
X106943374Y-98079861D01*
X106938115Y-98078083D01*
X106933094Y-98076081D01*
X106928314Y-98073850D01*
X106923780Y-98071385D01*
X106919496Y-98068679D01*
X106915465Y-98065726D01*
X106911691Y-98062521D01*
X106908178Y-98059057D01*
X106904929Y-98055330D01*
X106901950Y-98051333D01*
X106899244Y-98047061D01*
X106896814Y-98042507D01*
X106894664Y-98037667D01*
X106892799Y-98032533D01*
X106891222Y-98027100D01*
X106889937Y-98021364D01*
X106888948Y-98015316D01*
X106888259Y-98008953D01*
X106887873Y-98002268D01*
X106887796Y-97995255D01*
X106888029Y-97987908D01*
X106888578Y-97980222D01*
X106889446Y-97972191D01*
X106890638Y-97963809D01*
X106892156Y-97955071D01*
X106894005Y-97945969D01*
X106896189Y-97936500D01*
X106898711Y-97926656D01*
X106901576Y-97916433D01*
X106904787Y-97905824D01*
X106908349Y-97894823D01*
X106912264Y-97883425D01*
X106916538Y-97871624D01*
X106921173Y-97859414D01*
X106926175Y-97846789D01*
X106931545Y-97833744D01*
X106937290Y-97820272D01*
X106943411Y-97806368D01*
X106949914Y-97792027D01*
X106956802Y-97777241D01*
X106964079Y-97762006D01*
X106971749Y-97746316D01*
X106979816Y-97730165D01*
X106988283Y-97713547D01*
X106997155Y-97696456D01*
X107006435Y-97678886D01*
X107016128Y-97660832D01*
X107026237Y-97642288D01*
X107036765Y-97623248D01*
X107047718Y-97603707D01*
X107059098Y-97583658D01*
X107070910Y-97563095D01*
X107083158Y-97542014D01*
X107095845Y-97520407D01*
X107108975Y-97498270D01*
X107122552Y-97475596D01*
X107136581Y-97452380D01*
X107151064Y-97428616D01*
X107166006Y-97404298D01*
X107181411Y-97379420D01*
X107197282Y-97353977D01*
X107213624Y-97327962D01*
X107223967Y-97305272D01*
X107234357Y-97282577D01*
X107244790Y-97259875D01*
X107255261Y-97237167D01*
X107265766Y-97214453D01*
X107276299Y-97191731D01*
X107286858Y-97169003D01*
X107297437Y-97146267D01*
X107308031Y-97123523D01*
X107318636Y-97100771D01*
X107329248Y-97078011D01*
X107339862Y-97055242D01*
X107350473Y-97032464D01*
X107361077Y-97009677D01*
X107371670Y-96986880D01*
X107382246Y-96964073D01*
X107392802Y-96941256D01*
X107403333Y-96918429D01*
X107413834Y-96895590D01*
X107424301Y-96872741D01*
X107434728Y-96849879D01*
X107445113Y-96827007D01*
X107455450Y-96804122D01*
X107465734Y-96781224D01*
X107475962Y-96758314D01*
X107486128Y-96735391D01*
X107496228Y-96712455D01*
X107506257Y-96689505D01*
X107516212Y-96666541D01*
X107526087Y-96643563D01*
X107535878Y-96620570D01*
X107545580Y-96597562D01*
X107555190Y-96574540D01*
X107564701Y-96551501D01*
X107574111Y-96528447D01*
X107583413Y-96505377D01*
X107592605Y-96482291D01*
X107601681Y-96459188D01*
X107610636Y-96436068D01*
X107619466Y-96412930D01*
X107628168Y-96389775D01*
X107636735Y-96366602D01*
X107645164Y-96343411D01*
X107653450Y-96320201D01*
X107661588Y-96296973D01*
X107669574Y-96273725D01*
X107677404Y-96250457D01*
X107685073Y-96227170D01*
X107692576Y-96203863D01*
X107699909Y-96180536D01*
X107707068Y-96157188D01*
X107714047Y-96133819D01*
X107720842Y-96110428D01*
X107727449Y-96087016D01*
X107733864Y-96063582D01*
X107740081Y-96040126D01*
X107746096Y-96016647D01*
X107751905Y-95993145D01*
X107757503Y-95969621D01*
X107762886Y-95946072D01*
X107768048Y-95922500D01*
X107772987Y-95898904D01*
X107777696Y-95875284D01*
X107782171Y-95851639D01*
X107786409Y-95827969D01*
X107790404Y-95804273D01*
X107794152Y-95780552D01*
X107797648Y-95756805D01*
X107800888Y-95733032D01*
X107803867Y-95709232D01*
X107806581Y-95685406D01*
X107809025Y-95661552D01*
X107811195Y-95637671D01*
X107813086Y-95613762D01*
X107814694Y-95589825D01*
X107816013Y-95565859D01*
X107817041Y-95541865D01*
X107817771Y-95517842D01*
X107818200Y-95493790D01*
X107818323Y-95469708D01*
X107818135Y-95445596D01*
X107817632Y-95421454D01*
X107816810Y-95397281D01*
X107815664Y-95373078D01*
X107814188Y-95348843D01*
X107812380Y-95324577D01*
X107810234Y-95300279D01*
X107807746Y-95275950D01*
X107804911Y-95251587D01*
X107801724Y-95227192D01*
X107798182Y-95202764D01*
X107794279Y-95178303D01*
X107790012Y-95153808D01*
X107785375Y-95129280D01*
X107780364Y-95104717D01*
X107774975Y-95080119D01*
X107769202Y-95055487D01*
X107763042Y-95030819D01*
X107756490Y-95006117D01*
X107749542Y-94981378D01*
X107742192Y-94956603D01*
X107734436Y-94931792D01*
X107726271Y-94906944D01*
X107717691Y-94882060D01*
X107708691Y-94857138D01*
X107699268Y-94832178D01*
X107689416Y-94807180D01*
X107679131Y-94782145D01*
X107668409Y-94757070D01*
X107657246Y-94731957D01*
X107653963Y-94710373D01*
X107650761Y-94688710D01*
X107647623Y-94666989D01*
X107644531Y-94645233D01*
X107641468Y-94623465D01*
X107638417Y-94601705D01*
X107635359Y-94579977D01*
X107632279Y-94558302D01*
X107629158Y-94536704D01*
X107625978Y-94515203D01*
X107622724Y-94493822D01*
X107619377Y-94472584D01*
X107615920Y-94451510D01*
X107612335Y-94430624D01*
X107608606Y-94409946D01*
X107604714Y-94389499D01*
X107600644Y-94369305D01*
X107596376Y-94349387D01*
X107591894Y-94329766D01*
X107587180Y-94310466D01*
X107582218Y-94291507D01*
X107576989Y-94272913D01*
X107571477Y-94254705D01*
X107565664Y-94236905D01*
X107559532Y-94219537D01*
X107553064Y-94202621D01*
X107546244Y-94186180D01*
X107539053Y-94170237D01*
X107531474Y-94154814D01*
X107523490Y-94139932D01*
X107515084Y-94125613D01*
X107506237Y-94111881D01*
X107496933Y-94098758D01*
X107487155Y-94086264D01*
X107476885Y-94074424D01*
X107466105Y-94063258D01*
X107454799Y-94052789D01*
X107442948Y-94043039D01*
X107430537Y-94034031D01*
X107417546Y-94025786D01*
X107403959Y-94018327D01*
X107389759Y-94011676D01*
X107374928Y-94005855D01*
X107359448Y-94000886D01*
X107343303Y-93996792D01*
X107326475Y-93993594D01*
X107308947Y-93991315D01*
X107290701Y-93989978D01*
X107271720Y-93989603D01*
X107251986Y-93990214D01*
X107231483Y-93991833D01*
X107210193Y-93994481D01*
X107188098Y-93998181D01*
X107165181Y-94002956D01*
X107141425Y-94008826D01*
X107116813Y-94015816D01*
X107091326Y-94023946D01*
X107064948Y-94033239D01*
X107037662Y-94043717D01*
X107009449Y-94055402D01*
X106980294Y-94068316D01*
X106980294Y-94068316D01*
G37*
G36*
X104494640Y-104714653D02*
X104490227Y-104740556D01*
X104485789Y-104766459D01*
X104481328Y-104792362D01*
X104476843Y-104818264D01*
X104472335Y-104844167D01*
X104467804Y-104870069D01*
X104463250Y-104895971D01*
X104458674Y-104921872D01*
X104454076Y-104947774D01*
X104449456Y-104973675D01*
X104444815Y-104999576D01*
X104440152Y-105025477D01*
X104435469Y-105051377D01*
X104430766Y-105077278D01*
X104426042Y-105103178D01*
X104421298Y-105129078D01*
X104416535Y-105154978D01*
X104411753Y-105180877D01*
X104406952Y-105206777D01*
X104402132Y-105232676D01*
X104397294Y-105258575D01*
X104392437Y-105284474D01*
X104387564Y-105310372D01*
X104382672Y-105336271D01*
X104377764Y-105362169D01*
X104372839Y-105388067D01*
X104367898Y-105413965D01*
X104362940Y-105439863D01*
X104357967Y-105465760D01*
X104352978Y-105491658D01*
X104347973Y-105517555D01*
X104342954Y-105543452D01*
X104337921Y-105569349D01*
X104332873Y-105595246D01*
X104327811Y-105621143D01*
X104322736Y-105647040D01*
X104317647Y-105672936D01*
X104312545Y-105698832D01*
X104307430Y-105724729D01*
X104302303Y-105750625D01*
X104297164Y-105776521D01*
X104292013Y-105802416D01*
X104286851Y-105828312D01*
X104281678Y-105854208D01*
X104276493Y-105880103D01*
X104271298Y-105905999D01*
X104266093Y-105931894D01*
X104260878Y-105957789D01*
X104255653Y-105983684D01*
X104250419Y-106009579D01*
X104245176Y-106035474D01*
X104239925Y-106061369D01*
X104234665Y-106087264D01*
X104229396Y-106113158D01*
X104224120Y-106139053D01*
X104218837Y-106164947D01*
X104213547Y-106190842D01*
X104208249Y-106216736D01*
X104202945Y-106242630D01*
X104197635Y-106268524D01*
X104192319Y-106294419D01*
X104186998Y-106320313D01*
X104181671Y-106346207D01*
X104176339Y-106372101D01*
X104171003Y-106397995D01*
X104165662Y-106423889D01*
X104160317Y-106449782D01*
X104154969Y-106475676D01*
X104149617Y-106501570D01*
X104144262Y-106527464D01*
X104138904Y-106553358D01*
X104133544Y-106579251D01*
X104128181Y-106605145D01*
X104122817Y-106631039D01*
X104117451Y-106656932D01*
X104112084Y-106682826D01*
X104106715Y-106708720D01*
X104101347Y-106734613D01*
X104095978Y-106760507D01*
X104090608Y-106786400D01*
X104085240Y-106812294D01*
X104079872Y-106838188D01*
X104074504Y-106864081D01*
X104069138Y-106889975D01*
X104063774Y-106915869D01*
X104058411Y-106941762D01*
X104053051Y-106967656D01*
X104047693Y-106993550D01*
X104042338Y-107019443D01*
X104036986Y-107045337D01*
X104031637Y-107071231D01*
X104026292Y-107097125D01*
X104020951Y-107123019D01*
X104015615Y-107148913D01*
X104010283Y-107174807D01*
X104004956Y-107200701D01*
X103999634Y-107226595D01*
X103994318Y-107252489D01*
X103989007Y-107278383D01*
X103983703Y-107304278D01*
X103978406Y-107330172D01*
X103973115Y-107356066D01*
X103967831Y-107381961D01*
X103962555Y-107407855D01*
X103957287Y-107433750D01*
X103952026Y-107459645D01*
X103946774Y-107485540D01*
X103941531Y-107511434D01*
X103936297Y-107537329D01*
X103931072Y-107563224D01*
X103925856Y-107589120D01*
X103920651Y-107615015D01*
X103915455Y-107640910D01*
X103910271Y-107666806D01*
X103905097Y-107692701D01*
X103899934Y-107718597D01*
X103894783Y-107744493D01*
X103889643Y-107770389D01*
X103884516Y-107796285D01*
X103879401Y-107822181D01*
X103874298Y-107848077D01*
X103869209Y-107873974D01*
X103864133Y-107899870D01*
X103859071Y-107925767D01*
X103854022Y-107951664D01*
X103848988Y-107977561D01*
X103843969Y-108003458D01*
X103838964Y-108029356D01*
X103833975Y-108055253D01*
X103829001Y-108081151D01*
X103824042Y-108107048D01*
X103819100Y-108132946D01*
X103814175Y-108158844D01*
X103809266Y-108184743D01*
X103804374Y-108210641D01*
X103799500Y-108236540D01*
X103794643Y-108262439D01*
X103789804Y-108288338D01*
X103784983Y-108314237D01*
X103780181Y-108340136D01*
X103775398Y-108366036D01*
X103770635Y-108391935D01*
X103765890Y-108417835D01*
X103761166Y-108443736D01*
X103756461Y-108469636D01*
X103751778Y-108495536D01*
X103747115Y-108521437D01*
X103742473Y-108547338D01*
X103737852Y-108573239D01*
X103733253Y-108599141D01*
X103728676Y-108625042D01*
X103724122Y-108650944D01*
X103719590Y-108676846D01*
X103715081Y-108702749D01*
X103710595Y-108728651D01*
X103706133Y-108754554D01*
X103701694Y-108780457D01*
X103697280Y-108806361D01*
X103692891Y-108832264D01*
X103688526Y-108858168D01*
X103684186Y-108884072D01*
X103679872Y-108909976D01*
X103675583Y-108935881D01*
X103671321Y-108961786D01*
X103667085Y-108987691D01*
X103662875Y-109013596D01*
X103658693Y-109039502D01*
X103654537Y-109065408D01*
X103650410Y-109091314D01*
X103646310Y-109117220D01*
X103642238Y-109143127D01*
X103638195Y-109169034D01*
X103634181Y-109194941D01*
X103630196Y-109220849D01*
X103626240Y-109246757D01*
X103622315Y-109272665D01*
X103618419Y-109298574D01*
X103614553Y-109324483D01*
X103610719Y-109350392D01*
X103606915Y-109376301D01*
X103603143Y-109402211D01*
X103599402Y-109428121D01*
X103595693Y-109454032D01*
X103592017Y-109479942D01*
X103588373Y-109505854D01*
X103584761Y-109531765D01*
X103581183Y-109557677D01*
X103577639Y-109583589D01*
X103574128Y-109609501D01*
X103570652Y-109635414D01*
X103567209Y-109661327D01*
X103563802Y-109687241D01*
X103560430Y-109713155D01*
X103557092Y-109739069D01*
X103553791Y-109764983D01*
X103550526Y-109790898D01*
X103547296Y-109816814D01*
X103544104Y-109842729D01*
X103540948Y-109868645D01*
X103537830Y-109894562D01*
X103534749Y-109920479D01*
X103531705Y-109946396D01*
X103528700Y-109972313D01*
X103525734Y-109998231D01*
X103522806Y-110024150D01*
X103515752Y-110044296D01*
X103509242Y-110064297D01*
X103503267Y-110084151D01*
X103497821Y-110103854D01*
X103492895Y-110123406D01*
X103488481Y-110142802D01*
X103484572Y-110162042D01*
X103481159Y-110181122D01*
X103478234Y-110200041D01*
X103475790Y-110218796D01*
X103473819Y-110237385D01*
X103472312Y-110255805D01*
X103471262Y-110274054D01*
X103470661Y-110292130D01*
X103470501Y-110310030D01*
X103470774Y-110327752D01*
X103471473Y-110345294D01*
X103472588Y-110362654D01*
X103474113Y-110379828D01*
X103476039Y-110396816D01*
X103478358Y-110413613D01*
X103481063Y-110430219D01*
X103484146Y-110446631D01*
X103487598Y-110462846D01*
X103491412Y-110478863D01*
X103495580Y-110494678D01*
X103500094Y-110510289D01*
X103504946Y-110525695D01*
X103510127Y-110540892D01*
X103515631Y-110555880D01*
X103521450Y-110570654D01*
X103527574Y-110585213D01*
X103533997Y-110599554D01*
X103540711Y-110613676D01*
X103547707Y-110627575D01*
X103554978Y-110641250D01*
X103562515Y-110654698D01*
X103570312Y-110667917D01*
X103578359Y-110680905D01*
X103586649Y-110693659D01*
X103595174Y-110706176D01*
X103603926Y-110718456D01*
X103612898Y-110730494D01*
X103622081Y-110742289D01*
X103631467Y-110753839D01*
X103641049Y-110765141D01*
X103650818Y-110776193D01*
X103660766Y-110786992D01*
X103670887Y-110797537D01*
X103681171Y-110807825D01*
X103691611Y-110817853D01*
X103702199Y-110827619D01*
X103712927Y-110837122D01*
X103723787Y-110846358D01*
X103734772Y-110855325D01*
X103745872Y-110864021D01*
X103757081Y-110872444D01*
X103768390Y-110880591D01*
X103779792Y-110888460D01*
X103791279Y-110896048D01*
X103802842Y-110903354D01*
X103814473Y-110910375D01*
X103826166Y-110917108D01*
X103837911Y-110923552D01*
X103849702Y-110929704D01*
X103861529Y-110935561D01*
X103873386Y-110941122D01*
X103885264Y-110946384D01*
X103897155Y-110951344D01*
X103909051Y-110956001D01*
X103920945Y-110960352D01*
X103932829Y-110964394D01*
X103944694Y-110968126D01*
X103956533Y-110971544D01*
X103968337Y-110974648D01*
X103980100Y-110977434D01*
X103991812Y-110979899D01*
X104003467Y-110982043D01*
X104015055Y-110983862D01*
X104026570Y-110985354D01*
X104038003Y-110986516D01*
X104049346Y-110987347D01*
X104060592Y-110987844D01*
X104071732Y-110988005D01*
X104082759Y-110987827D01*
X104093664Y-110987309D01*
X104104440Y-110986447D01*
X104115079Y-110985239D01*
X104125573Y-110983684D01*
X104135914Y-110981778D01*
X104146094Y-110979519D01*
X104156105Y-110976906D01*
X104165939Y-110973936D01*
X104175589Y-110970606D01*
X104185046Y-110966914D01*
X104194302Y-110962858D01*
X104203350Y-110958435D01*
X104212182Y-110953643D01*
X104220789Y-110948481D01*
X104229164Y-110942944D01*
X104237299Y-110937032D01*
X104245186Y-110930742D01*
X104252817Y-110924071D01*
X104260184Y-110917017D01*
X104267279Y-110909578D01*
X104274095Y-110901752D01*
X104280623Y-110893536D01*
X104286855Y-110884927D01*
X104292784Y-110875924D01*
X104298401Y-110866525D01*
X104303699Y-110856726D01*
X104308670Y-110846525D01*
X104313305Y-110835921D01*
X104317598Y-110824911D01*
X104321539Y-110813492D01*
X104325122Y-110801663D01*
X104328337Y-110789420D01*
X104331178Y-110776762D01*
X104333636Y-110763686D01*
X104335704Y-110750190D01*
X104337373Y-110736271D01*
X104338636Y-110721928D01*
X104339484Y-110707158D01*
X104339910Y-110691958D01*
X104339906Y-110676327D01*
X104339463Y-110660261D01*
X104338575Y-110643759D01*
X104337232Y-110626818D01*
X104335428Y-110609436D01*
X104333154Y-110591611D01*
X104330402Y-110573340D01*
X104327165Y-110554621D01*
X104323434Y-110535452D01*
X104319201Y-110515830D01*
X104314459Y-110495752D01*
X104309200Y-110475218D01*
X104303415Y-110454224D01*
X104297098Y-110432767D01*
X104290239Y-110410847D01*
X104282831Y-110388460D01*
X104274866Y-110365603D01*
X104272574Y-110339989D01*
X104270441Y-110314376D01*
X104268464Y-110288764D01*
X104266642Y-110263155D01*
X104264975Y-110237546D01*
X104263459Y-110211940D01*
X104262094Y-110186335D01*
X104260879Y-110160731D01*
X104259811Y-110135129D01*
X104258889Y-110109528D01*
X104258112Y-110083928D01*
X104257477Y-110058330D01*
X104256985Y-110032734D01*
X104256632Y-110007139D01*
X104256418Y-109981545D01*
X104256340Y-109955953D01*
X104256398Y-109930362D01*
X104256590Y-109904772D01*
X104256914Y-109879184D01*
X104257369Y-109853597D01*
X104257953Y-109828011D01*
X104258665Y-109802426D01*
X104259503Y-109776843D01*
X104260465Y-109751261D01*
X104261551Y-109725680D01*
X104262758Y-109700101D01*
X104264086Y-109674523D01*
X104265531Y-109648945D01*
X104267094Y-109623369D01*
X104268773Y-109597795D01*
X104270565Y-109572221D01*
X104272469Y-109546648D01*
X104274485Y-109521077D01*
X104276609Y-109495507D01*
X104278842Y-109469937D01*
X104281181Y-109444369D01*
X104283624Y-109418802D01*
X104286171Y-109393236D01*
X104288819Y-109367671D01*
X104291568Y-109342106D01*
X104294415Y-109316543D01*
X104297359Y-109290981D01*
X104300398Y-109265420D01*
X104303532Y-109239859D01*
X104306758Y-109214300D01*
X104310075Y-109188742D01*
X104313481Y-109163184D01*
X104316975Y-109137627D01*
X104320556Y-109112072D01*
X104324221Y-109086517D01*
X104327969Y-109060962D01*
X104331800Y-109035409D01*
X104335710Y-109009856D01*
X104339699Y-108984305D01*
X104343765Y-108958754D01*
X104347907Y-108933204D01*
X104352123Y-108907654D01*
X104356411Y-108882105D01*
X104360771Y-108856557D01*
X104365199Y-108831010D01*
X104369696Y-108805463D01*
X104374259Y-108779917D01*
X104378887Y-108754372D01*
X104383579Y-108728827D01*
X104388332Y-108703283D01*
X104393145Y-108677739D01*
X104398017Y-108652196D01*
X104402947Y-108626654D01*
X104407931Y-108601112D01*
X104412971Y-108575571D01*
X104418062Y-108550030D01*
X104423205Y-108524490D01*
X104428397Y-108498950D01*
X104433637Y-108473411D01*
X104438924Y-108447872D01*
X104444256Y-108422334D01*
X104449631Y-108396796D01*
X104455048Y-108371258D01*
X104460505Y-108345721D01*
X104466001Y-108320185D01*
X104471534Y-108294648D01*
X104477103Y-108269112D01*
X104482707Y-108243577D01*
X104488343Y-108218041D01*
X104494010Y-108192506D01*
X104499706Y-108166972D01*
X104505431Y-108141437D01*
X104511182Y-108115903D01*
X104516959Y-108090369D01*
X104522758Y-108064835D01*
X104528580Y-108039302D01*
X104534422Y-108013769D01*
X104540283Y-107988236D01*
X104546161Y-107962703D01*
X104552055Y-107937170D01*
X104557964Y-107911637D01*
X104563885Y-107886105D01*
X104569817Y-107860573D01*
X104575759Y-107835040D01*
X104581709Y-107809508D01*
X104587666Y-107783976D01*
X104593628Y-107758444D01*
X104599593Y-107732912D01*
X104605560Y-107707380D01*
X104611528Y-107681848D01*
X104617495Y-107656316D01*
X104623459Y-107630784D01*
X104629419Y-107605252D01*
X104635374Y-107579720D01*
X104641321Y-107554188D01*
X104647259Y-107528655D01*
X104653188Y-107503123D01*
X104659104Y-107477590D01*
X104665007Y-107452058D01*
X104670896Y-107426525D01*
X104676767Y-107400992D01*
X104682621Y-107375459D01*
X104688456Y-107349925D01*
X104694269Y-107324392D01*
X104700060Y-107298858D01*
X104705827Y-107273324D01*
X104711569Y-107247790D01*
X104717283Y-107222255D01*
X104722969Y-107196721D01*
X104728624Y-107171185D01*
X104734248Y-107145650D01*
X104739838Y-107120114D01*
X104745394Y-107094578D01*
X104750913Y-107069042D01*
X104756395Y-107043505D01*
X104761837Y-107017968D01*
X104767238Y-106992430D01*
X104772597Y-106966892D01*
X104777912Y-106941353D01*
X104783181Y-106915814D01*
X104788404Y-106890275D01*
X104793577Y-106864735D01*
X104798701Y-106839194D01*
X104803773Y-106813654D01*
X104808791Y-106788112D01*
X104813756Y-106762570D01*
X104818663Y-106737027D01*
X104823513Y-106711484D01*
X104828304Y-106685941D01*
X104833034Y-106660396D01*
X104837701Y-106634851D01*
X104842305Y-106609306D01*
X104846843Y-106583759D01*
X104851314Y-106558212D01*
X104855717Y-106532665D01*
X104860050Y-106507116D01*
X104864311Y-106481567D01*
X104868499Y-106456018D01*
X104872612Y-106430467D01*
X104876649Y-106404916D01*
X104880609Y-106379364D01*
X104884489Y-106353811D01*
X104888289Y-106328257D01*
X104892006Y-106302703D01*
X104895639Y-106277147D01*
X104899187Y-106251591D01*
X104902648Y-106226034D01*
X104906021Y-106200476D01*
X104909303Y-106174917D01*
X104912494Y-106149358D01*
X104915593Y-106123797D01*
X104917428Y-106108693D01*
X104919457Y-106093319D01*
X104921672Y-106077684D01*
X104924066Y-106061796D01*
X104926633Y-106045663D01*
X104929366Y-106029294D01*
X104932257Y-106012695D01*
X104935301Y-105995876D01*
X104938489Y-105978844D01*
X104941816Y-105961608D01*
X104945275Y-105944176D01*
X104948858Y-105926555D01*
X104952559Y-105908755D01*
X104956371Y-105890783D01*
X104960287Y-105872646D01*
X104964300Y-105854354D01*
X104968404Y-105835915D01*
X104972592Y-105817336D01*
X104976856Y-105798626D01*
X104981190Y-105779793D01*
X104985588Y-105760844D01*
X104990041Y-105741789D01*
X104994544Y-105722634D01*
X104999090Y-105703389D01*
X105003671Y-105684062D01*
X105008282Y-105664660D01*
X105012914Y-105645191D01*
X105017562Y-105625665D01*
X105022218Y-105606088D01*
X105026876Y-105586469D01*
X105031528Y-105566816D01*
X105036168Y-105547138D01*
X105040790Y-105527441D01*
X105045385Y-105507736D01*
X105049948Y-105488028D01*
X105054472Y-105468328D01*
X105058949Y-105448642D01*
X105063373Y-105428979D01*
X105067737Y-105409348D01*
X105072034Y-105389755D01*
X105076258Y-105370210D01*
X105080401Y-105350720D01*
X105084457Y-105331294D01*
X105088418Y-105311939D01*
X105092279Y-105292664D01*
X105096032Y-105273477D01*
X105099670Y-105254386D01*
X105103186Y-105235399D01*
X105106575Y-105216525D01*
X105109828Y-105197770D01*
X105112939Y-105179144D01*
X105115901Y-105160655D01*
X105118707Y-105142311D01*
X105121351Y-105124119D01*
X105123825Y-105106088D01*
X105126124Y-105088226D01*
X105128239Y-105070542D01*
X105130164Y-105053043D01*
X105131893Y-105035737D01*
X105133417Y-105018632D01*
X105134732Y-105001738D01*
X105135829Y-104985061D01*
X105136702Y-104968610D01*
X105137345Y-104952393D01*
X105137749Y-104936418D01*
X105137909Y-104920693D01*
X105137817Y-104905227D01*
X105137467Y-104890028D01*
X105136852Y-104875102D01*
X105135965Y-104860460D01*
X105134800Y-104846108D01*
X105133348Y-104832056D01*
X105131604Y-104818310D01*
X105129561Y-104804880D01*
X105127212Y-104791773D01*
X105124549Y-104778997D01*
X105121567Y-104766561D01*
X105118258Y-104754473D01*
X105114616Y-104742740D01*
X105110633Y-104731371D01*
X105106303Y-104720375D01*
X105101619Y-104709758D01*
X105096574Y-104699530D01*
X105091162Y-104689698D01*
X105085375Y-104680271D01*
X105079206Y-104671256D01*
X105072650Y-104662662D01*
X105065698Y-104654497D01*
X105058344Y-104646768D01*
X105050582Y-104639485D01*
X105042404Y-104632655D01*
X105033804Y-104626287D01*
X105024774Y-104620388D01*
X105015308Y-104614966D01*
X105005400Y-104610030D01*
X104995041Y-104605588D01*
X104984226Y-104601648D01*
X104972948Y-104598218D01*
X104961199Y-104595306D01*
X104948974Y-104592920D01*
X104936264Y-104591069D01*
X104923063Y-104589760D01*
X104909365Y-104589002D01*
X104895162Y-104588802D01*
X104880449Y-104589170D01*
X104865216Y-104590112D01*
X104849459Y-104591637D01*
X104833170Y-104593754D01*
X104816343Y-104596470D01*
X104798970Y-104599794D01*
X104781044Y-104603733D01*
X104762560Y-104608296D01*
X104743509Y-104613490D01*
X104723886Y-104619325D01*
X104703683Y-104625807D01*
X104682893Y-104632946D01*
X104661510Y-104640749D01*
X104639527Y-104649225D01*
X104616936Y-104658381D01*
X104593732Y-104668225D01*
X104569907Y-104678767D01*
X104545455Y-104690013D01*
X104520368Y-104701972D01*
X104494640Y-104714653D01*
X104494640Y-104714653D01*
G37*
G36*
X103923278Y-48295805D02*
X103922737Y-48322203D01*
X103922186Y-48348602D01*
X103921626Y-48375001D01*
X103921058Y-48401402D01*
X103920482Y-48427803D01*
X103919896Y-48454206D01*
X103919303Y-48480609D01*
X103918701Y-48507013D01*
X103918092Y-48533418D01*
X103917474Y-48559824D01*
X103916849Y-48586231D01*
X103916216Y-48612638D01*
X103915575Y-48639047D01*
X103914927Y-48665456D01*
X103914272Y-48691866D01*
X103913609Y-48718276D01*
X103912939Y-48744688D01*
X103912263Y-48771100D01*
X103911579Y-48797513D01*
X103910889Y-48823927D01*
X103910192Y-48850341D01*
X103909489Y-48876756D01*
X103908779Y-48903172D01*
X103908064Y-48929588D01*
X103907342Y-48956006D01*
X103906614Y-48982423D01*
X103905880Y-49008842D01*
X103905141Y-49035261D01*
X103904396Y-49061680D01*
X103903646Y-49088100D01*
X103902890Y-49114521D01*
X103902129Y-49140943D01*
X103901363Y-49167364D01*
X103900592Y-49193787D01*
X103899816Y-49220210D01*
X103899035Y-49246633D01*
X103898250Y-49273057D01*
X103897460Y-49299482D01*
X103896666Y-49325906D01*
X103895867Y-49352332D01*
X103895065Y-49378758D01*
X103894258Y-49405184D01*
X103893448Y-49431610D01*
X103892634Y-49458037D01*
X103891816Y-49484465D01*
X103890995Y-49510893D01*
X103890170Y-49537321D01*
X103889342Y-49563749D01*
X103888511Y-49590178D01*
X103887677Y-49616607D01*
X103886840Y-49643037D01*
X103886001Y-49669467D01*
X103885158Y-49695897D01*
X103884313Y-49722327D01*
X103883466Y-49748758D01*
X103882617Y-49775189D01*
X103881765Y-49801620D01*
X103880911Y-49828051D01*
X103880056Y-49854482D01*
X103879198Y-49880914D01*
X103878339Y-49907346D01*
X103877479Y-49933778D01*
X103876617Y-49960210D01*
X103875753Y-49986643D01*
X103874889Y-50013075D01*
X103874023Y-50039508D01*
X103873157Y-50065940D01*
X103872290Y-50092373D01*
X103871422Y-50118806D01*
X103870553Y-50145239D01*
X103869684Y-50171672D01*
X103868815Y-50198105D01*
X103867946Y-50224538D01*
X103867077Y-50250971D01*
X103866207Y-50277404D01*
X103865338Y-50303837D01*
X103864469Y-50330270D01*
X103863601Y-50356702D01*
X103862733Y-50383135D01*
X103861866Y-50409568D01*
X103860999Y-50436001D01*
X103860134Y-50462433D01*
X103859269Y-50488866D01*
X103858406Y-50515298D01*
X103857544Y-50541730D01*
X103856684Y-50568162D01*
X103855825Y-50594594D01*
X103854968Y-50621026D01*
X103854112Y-50647457D01*
X103853258Y-50673889D01*
X103852407Y-50700320D01*
X103851557Y-50726750D01*
X103850710Y-50753181D01*
X103849866Y-50779611D01*
X103849023Y-50806041D01*
X103848184Y-50832471D01*
X103847347Y-50858901D01*
X103846513Y-50885330D01*
X103845682Y-50911759D01*
X103844854Y-50938187D01*
X103844030Y-50964615D01*
X103843209Y-50991043D01*
X103842391Y-51017470D01*
X103841577Y-51043897D01*
X103840767Y-51070324D01*
X103839961Y-51096750D01*
X103839159Y-51123176D01*
X103838360Y-51149601D01*
X103837567Y-51176026D01*
X103836777Y-51202451D01*
X103835992Y-51228874D01*
X103835211Y-51255298D01*
X103834436Y-51281721D01*
X103833665Y-51308143D01*
X103832899Y-51334565D01*
X103832138Y-51360986D01*
X103831383Y-51387407D01*
X103830633Y-51413827D01*
X103829888Y-51440247D01*
X103829149Y-51466666D01*
X103828416Y-51493084D01*
X103827688Y-51519502D01*
X103826967Y-51545919D01*
X103826251Y-51572335D01*
X103825542Y-51598751D01*
X103824839Y-51625166D01*
X103824143Y-51651580D01*
X103823453Y-51677994D01*
X103822770Y-51704407D01*
X103822093Y-51730819D01*
X103821424Y-51757230D01*
X103820762Y-51783641D01*
X103820107Y-51810051D01*
X103819459Y-51836460D01*
X103818819Y-51862868D01*
X103818186Y-51889276D01*
X103817561Y-51915682D01*
X103816944Y-51942088D01*
X103816335Y-51968493D01*
X103815734Y-51994897D01*
X103815141Y-52021301D01*
X103814556Y-52047703D01*
X103813980Y-52074104D01*
X103813412Y-52100505D01*
X103812853Y-52126904D01*
X103812303Y-52153303D01*
X103811761Y-52179700D01*
X103811229Y-52206097D01*
X103810706Y-52232493D01*
X103810192Y-52258887D01*
X103809688Y-52285281D01*
X103809193Y-52311674D01*
X103808708Y-52338065D01*
X103808233Y-52364456D01*
X103807767Y-52390845D01*
X103807312Y-52417234D01*
X103806867Y-52443621D01*
X103806432Y-52470007D01*
X103806007Y-52496392D01*
X103805593Y-52522776D01*
X103805189Y-52549159D01*
X103804797Y-52575541D01*
X103804415Y-52601921D01*
X103804044Y-52628300D01*
X103803685Y-52654678D01*
X103803336Y-52681055D01*
X103802999Y-52707431D01*
X103802674Y-52733805D01*
X103802360Y-52760178D01*
X103802058Y-52786550D01*
X103801768Y-52812921D01*
X103801490Y-52839290D01*
X103801224Y-52865658D01*
X103800970Y-52892025D01*
X103800729Y-52918390D01*
X103800500Y-52944754D01*
X103800283Y-52971117D01*
X103800080Y-52997478D01*
X103799889Y-53023838D01*
X103799711Y-53050196D01*
X103799547Y-53076553D01*
X103799395Y-53102909D01*
X103799257Y-53129263D01*
X103799133Y-53155616D01*
X103799022Y-53181967D01*
X103798924Y-53208317D01*
X103798841Y-53234665D01*
X103798772Y-53261012D01*
X103798716Y-53287357D01*
X103798675Y-53313701D01*
X103798648Y-53340043D01*
X103798636Y-53366384D01*
X103813332Y-53385567D01*
X103827850Y-53404983D01*
X103842196Y-53424626D01*
X103856375Y-53444491D01*
X103870390Y-53464571D01*
X103884247Y-53484859D01*
X103897951Y-53505350D01*
X103911506Y-53526038D01*
X103924916Y-53546916D01*
X103938188Y-53567977D01*
X103951325Y-53589216D01*
X103964331Y-53610627D01*
X103977213Y-53632203D01*
X103989974Y-53653939D01*
X104002620Y-53675827D01*
X104015154Y-53697862D01*
X104027582Y-53720037D01*
X104039909Y-53742347D01*
X104052139Y-53764784D01*
X104064276Y-53787344D01*
X104076327Y-53810020D01*
X104088294Y-53832804D01*
X104100184Y-53855693D01*
X104112000Y-53878678D01*
X104123748Y-53901754D01*
X104135432Y-53924915D01*
X104147058Y-53948154D01*
X104158628Y-53971465D01*
X104170149Y-53994843D01*
X104181626Y-54018280D01*
X104193062Y-54041771D01*
X104204462Y-54065309D01*
X104215832Y-54088889D01*
X104227176Y-54112503D01*
X104238499Y-54136147D01*
X104249805Y-54159813D01*
X104261099Y-54183495D01*
X104272386Y-54207188D01*
X104283671Y-54230885D01*
X104294958Y-54254579D01*
X104306253Y-54278265D01*
X104317559Y-54301936D01*
X104328881Y-54325587D01*
X104340225Y-54349210D01*
X104351595Y-54372800D01*
X104362995Y-54396351D01*
X104374431Y-54419856D01*
X104385907Y-54443310D01*
X104397428Y-54466705D01*
X104408998Y-54490036D01*
X104420623Y-54513296D01*
X104432306Y-54536480D01*
X104444054Y-54559581D01*
X104455870Y-54582593D01*
X104467759Y-54605509D01*
X104479726Y-54628324D01*
X104491775Y-54651031D01*
X104503912Y-54673625D01*
X104516142Y-54696098D01*
X104528467Y-54718445D01*
X104540895Y-54740659D01*
X104553429Y-54762735D01*
X104566073Y-54784666D01*
X104578834Y-54806445D01*
X104591714Y-54828068D01*
X104604720Y-54849526D01*
X104617856Y-54870815D01*
X104631127Y-54891928D01*
X104644536Y-54912859D01*
X104658090Y-54933601D01*
X104671793Y-54954149D01*
X104685649Y-54974496D01*
X104699663Y-54994636D01*
X104713840Y-55014563D01*
X104728185Y-55034270D01*
X104742702Y-55053752D01*
X104757397Y-55073002D01*
X104772273Y-55092014D01*
X104787335Y-55110782D01*
X104802589Y-55129299D01*
X104818039Y-55147560D01*
X104833690Y-55165558D01*
X104849546Y-55183287D01*
X104865612Y-55200740D01*
X104881894Y-55217912D01*
X104898394Y-55234797D01*
X104915120Y-55251387D01*
X104932074Y-55267678D01*
X104949262Y-55283662D01*
X104966688Y-55299333D01*
X104984358Y-55314686D01*
X105002276Y-55329715D01*
X105020446Y-55344412D01*
X105038874Y-55358771D01*
X105057563Y-55372788D01*
X105076520Y-55386454D01*
X105095748Y-55399765D01*
X105115253Y-55412713D01*
X105135038Y-55425293D01*
X105155110Y-55437499D01*
X105175472Y-55449323D01*
X105198542Y-55449548D01*
X105220824Y-55449336D01*
X105242326Y-55448694D01*
X105263057Y-55447626D01*
X105283026Y-55446138D01*
X105302241Y-55444234D01*
X105320711Y-55441919D01*
X105338446Y-55439200D01*
X105355454Y-55436080D01*
X105371744Y-55432565D01*
X105387324Y-55428661D01*
X105402204Y-55424371D01*
X105416393Y-55419702D01*
X105429899Y-55414658D01*
X105442730Y-55409244D01*
X105454897Y-55403466D01*
X105466407Y-55397328D01*
X105477270Y-55390837D01*
X105487494Y-55383996D01*
X105497089Y-55376811D01*
X105506063Y-55369287D01*
X105514424Y-55361429D01*
X105522182Y-55353242D01*
X105529346Y-55344732D01*
X105535924Y-55335903D01*
X105541926Y-55326760D01*
X105547359Y-55317310D01*
X105552233Y-55307556D01*
X105556557Y-55297503D01*
X105560340Y-55287158D01*
X105563590Y-55276524D01*
X105566316Y-55265608D01*
X105568527Y-55254414D01*
X105570232Y-55242947D01*
X105571440Y-55231213D01*
X105572160Y-55219216D01*
X105572399Y-55206962D01*
X105572168Y-55194455D01*
X105571476Y-55181701D01*
X105570329Y-55168705D01*
X105568739Y-55155472D01*
X105566713Y-55142007D01*
X105564261Y-55128316D01*
X105561391Y-55114402D01*
X105558112Y-55100272D01*
X105554432Y-55085931D01*
X105550362Y-55071383D01*
X105545909Y-55056633D01*
X105541082Y-55041688D01*
X105535891Y-55026551D01*
X105530343Y-55011228D01*
X105524449Y-54995725D01*
X105518216Y-54980045D01*
X105511654Y-54964195D01*
X105504771Y-54948179D01*
X105497576Y-54932003D01*
X105490079Y-54915671D01*
X105482287Y-54899189D01*
X105474210Y-54882561D01*
X105465856Y-54865794D01*
X105457235Y-54848891D01*
X105448355Y-54831859D01*
X105439226Y-54814701D01*
X105429855Y-54797424D01*
X105420251Y-54780032D01*
X105410425Y-54762531D01*
X105400383Y-54744925D01*
X105390136Y-54727220D01*
X105379692Y-54709420D01*
X105369060Y-54691532D01*
X105358248Y-54673559D01*
X105347266Y-54655508D01*
X105336123Y-54637382D01*
X105324826Y-54619188D01*
X105313386Y-54600930D01*
X105301810Y-54582613D01*
X105290108Y-54564243D01*
X105278289Y-54545825D01*
X105266361Y-54527363D01*
X105254333Y-54508864D01*
X105242215Y-54490331D01*
X105230014Y-54471770D01*
X105217740Y-54453186D01*
X105205401Y-54434584D01*
X105193007Y-54415970D01*
X105180566Y-54397348D01*
X105168087Y-54378724D01*
X105155579Y-54360102D01*
X105143050Y-54341488D01*
X105130510Y-54322887D01*
X105117968Y-54304304D01*
X105105432Y-54285744D01*
X105092910Y-54267211D01*
X105080413Y-54248713D01*
X105067948Y-54230252D01*
X105055525Y-54211835D01*
X105043152Y-54193466D01*
X105030838Y-54175151D01*
X105018592Y-54156894D01*
X105006424Y-54138701D01*
X104994341Y-54120577D01*
X104982352Y-54102528D01*
X104970467Y-54084557D01*
X104958694Y-54066670D01*
X104947042Y-54048873D01*
X104935520Y-54031170D01*
X104924136Y-54013567D01*
X104912900Y-53996068D01*
X104901821Y-53978679D01*
X104890906Y-53961404D01*
X104880166Y-53944250D01*
X104869608Y-53927220D01*
X104859242Y-53910320D01*
X104849077Y-53893556D01*
X104839121Y-53876932D01*
X104829383Y-53860453D01*
X104819873Y-53844125D01*
X104810598Y-53827952D01*
X104801567Y-53811940D01*
X104792791Y-53796094D01*
X104784276Y-53780419D01*
X104776033Y-53764919D01*
X104768070Y-53749601D01*
X104760396Y-53734468D01*
X104753019Y-53719527D01*
X104745949Y-53704783D01*
X104739194Y-53690239D01*
X104732764Y-53675903D01*
X104726666Y-53661778D01*
X104720910Y-53647869D01*
X104715505Y-53634183D01*
X104710460Y-53620723D01*
X104705783Y-53607496D01*
X104701483Y-53594505D01*
X104697569Y-53581757D01*
X104694050Y-53569256D01*
X104690934Y-53557008D01*
X104679450Y-53534949D01*
X104668318Y-53512803D01*
X104657532Y-53490571D01*
X104647088Y-53468255D01*
X104636982Y-53445854D01*
X104627209Y-53423371D01*
X104617765Y-53400807D01*
X104608645Y-53378162D01*
X104599845Y-53355439D01*
X104591360Y-53332637D01*
X104583186Y-53309758D01*
X104575317Y-53286803D01*
X104567751Y-53263773D01*
X104560481Y-53240670D01*
X104553504Y-53217495D01*
X104546815Y-53194248D01*
X104540410Y-53170930D01*
X104534284Y-53147544D01*
X104528432Y-53124090D01*
X104522851Y-53100568D01*
X104517535Y-53076981D01*
X104512480Y-53053329D01*
X104507681Y-53029614D01*
X104503135Y-53005836D01*
X104498836Y-52981997D01*
X104494780Y-52958098D01*
X104490962Y-52934139D01*
X104487379Y-52910123D01*
X104484024Y-52886049D01*
X104480895Y-52861920D01*
X104477986Y-52837737D01*
X104475294Y-52813500D01*
X104472812Y-52789210D01*
X104470538Y-52764870D01*
X104468465Y-52740479D01*
X104466591Y-52716039D01*
X104464910Y-52691551D01*
X104463418Y-52667016D01*
X104462110Y-52642436D01*
X104460982Y-52617811D01*
X104460030Y-52593143D01*
X104459248Y-52568432D01*
X104458632Y-52543681D01*
X104458179Y-52518889D01*
X104457882Y-52494058D01*
X104457738Y-52469189D01*
X104457743Y-52444284D01*
X104457891Y-52419343D01*
X104458179Y-52394367D01*
X104458601Y-52369358D01*
X104459153Y-52344317D01*
X104459831Y-52319245D01*
X104460630Y-52294143D01*
X104461546Y-52269011D01*
X104462574Y-52243852D01*
X104463710Y-52218667D01*
X104464949Y-52193455D01*
X104466286Y-52168220D01*
X104467718Y-52142961D01*
X104469239Y-52117679D01*
X104470846Y-52092377D01*
X104472532Y-52067055D01*
X104474295Y-52041714D01*
X104476130Y-52016355D01*
X104478031Y-51990979D01*
X104479995Y-51965589D01*
X104482018Y-51940183D01*
X104484093Y-51914765D01*
X104486218Y-51889334D01*
X104488387Y-51863892D01*
X104490596Y-51838441D01*
X104492841Y-51812980D01*
X104495116Y-51787512D01*
X104497418Y-51762037D01*
X104499742Y-51736557D01*
X104502083Y-51711073D01*
X104504437Y-51685585D01*
X104506800Y-51660096D01*
X104509166Y-51634605D01*
X104511532Y-51609114D01*
X104513893Y-51583625D01*
X104516244Y-51558138D01*
X104518581Y-51532655D01*
X104520899Y-51507176D01*
X104523195Y-51481703D01*
X104525462Y-51456237D01*
X104527697Y-51430779D01*
X104529896Y-51405330D01*
X104532053Y-51379891D01*
X104534165Y-51354464D01*
X104536226Y-51329049D01*
X104538232Y-51303647D01*
X104540180Y-51278261D01*
X104542063Y-51252890D01*
X104543878Y-51227536D01*
X104545621Y-51202199D01*
X104547286Y-51176883D01*
X104548869Y-51151586D01*
X104550366Y-51126311D01*
X104551772Y-51101058D01*
X104553083Y-51075829D01*
X104554294Y-51050625D01*
X104555400Y-51025446D01*
X104556398Y-51000295D01*
X104557282Y-50975171D01*
X104558048Y-50950077D01*
X104558692Y-50925013D01*
X104559209Y-50899981D01*
X104559595Y-50874981D01*
X104559844Y-50850015D01*
X104559953Y-50825084D01*
X104559917Y-50800188D01*
X104559732Y-50775330D01*
X104559393Y-50750510D01*
X104558895Y-50725729D01*
X104558234Y-50700988D01*
X104557405Y-50676289D01*
X104556405Y-50651633D01*
X104555228Y-50627020D01*
X104553869Y-50602452D01*
X104552326Y-50577931D01*
X104550592Y-50553456D01*
X104548663Y-50529029D01*
X104546536Y-50504652D01*
X104544205Y-50480326D01*
X104540105Y-50460376D01*
X104536371Y-50440164D01*
X104532996Y-50419695D01*
X104529968Y-50398976D01*
X104527280Y-50378013D01*
X104524920Y-50356814D01*
X104522881Y-50335385D01*
X104521153Y-50313732D01*
X104519726Y-50291862D01*
X104518591Y-50269782D01*
X104517739Y-50247498D01*
X104517160Y-50225017D01*
X104516845Y-50202345D01*
X104516784Y-50179490D01*
X104516969Y-50156458D01*
X104517389Y-50133254D01*
X104518036Y-50109887D01*
X104518900Y-50086363D01*
X104519972Y-50062687D01*
X104521242Y-50038868D01*
X104522701Y-50014911D01*
X104524340Y-49990823D01*
X104526149Y-49966610D01*
X104528119Y-49942280D01*
X104530240Y-49917839D01*
X104532504Y-49893294D01*
X104534900Y-49868650D01*
X104537420Y-49843916D01*
X104540054Y-49819096D01*
X104542793Y-49794199D01*
X104545627Y-49769230D01*
X104548547Y-49744197D01*
X104551544Y-49719105D01*
X104554607Y-49693962D01*
X104557729Y-49668774D01*
X104560900Y-49643547D01*
X104564109Y-49618289D01*
X104567348Y-49593006D01*
X104570608Y-49567704D01*
X104573879Y-49542391D01*
X104577151Y-49517072D01*
X104580416Y-49491755D01*
X104583664Y-49466445D01*
X104586886Y-49441150D01*
X104590071Y-49415877D01*
X104593212Y-49390631D01*
X104596298Y-49365420D01*
X104599320Y-49340249D01*
X104602269Y-49315127D01*
X104605136Y-49290058D01*
X104607910Y-49265051D01*
X104610583Y-49240111D01*
X104613146Y-49215246D01*
X104615588Y-49190461D01*
X104617902Y-49165763D01*
X104620076Y-49141160D01*
X104622102Y-49116657D01*
X104623971Y-49092261D01*
X104625673Y-49067979D01*
X104627198Y-49043818D01*
X104628539Y-49019783D01*
X104629684Y-48995883D01*
X104630624Y-48972122D01*
X104631352Y-48948509D01*
X104631856Y-48925049D01*
X104632127Y-48901749D01*
X104632157Y-48878616D01*
X104631936Y-48855656D01*
X104631454Y-48832877D01*
X104630703Y-48810283D01*
X104629672Y-48787884D01*
X104628352Y-48765684D01*
X104626735Y-48743690D01*
X104624810Y-48721910D01*
X104622569Y-48700349D01*
X104620001Y-48679014D01*
X104617099Y-48657913D01*
X104613851Y-48637051D01*
X104610249Y-48616435D01*
X104606284Y-48596071D01*
X104601946Y-48575968D01*
X104597225Y-48556130D01*
X104592113Y-48536565D01*
X104586600Y-48517279D01*
X104580677Y-48498279D01*
X104574334Y-48479571D01*
X104567561Y-48461162D01*
X104560351Y-48443059D01*
X104552693Y-48425269D01*
X104544577Y-48407797D01*
X104535995Y-48390651D01*
X104526937Y-48373837D01*
X104517394Y-48357361D01*
X104507356Y-48341231D01*
X104496814Y-48325454D01*
X104485759Y-48310034D01*
X104474181Y-48294980D01*
X104462072Y-48280298D01*
X104449420Y-48265994D01*
X104436218Y-48252075D01*
X104422456Y-48238548D01*
X104408124Y-48225419D01*
X104393213Y-48212696D01*
X104377714Y-48200383D01*
X104361617Y-48188489D01*
X104344914Y-48177020D01*
X104327594Y-48165982D01*
X104301959Y-48163828D01*
X104277003Y-48161641D01*
X104252708Y-48159578D01*
X104229056Y-48157795D01*
X104206029Y-48156450D01*
X104183609Y-48155700D01*
X104161777Y-48155703D01*
X104140516Y-48156616D01*
X104119807Y-48158597D01*
X104099632Y-48161801D01*
X104079973Y-48166388D01*
X104060812Y-48172514D01*
X104042131Y-48180336D01*
X104023912Y-48190012D01*
X104006137Y-48201699D01*
X103988786Y-48215555D01*
X103971844Y-48231736D01*
X103955290Y-48250399D01*
X103939108Y-48271704D01*
X103923278Y-48295805D01*
X103923278Y-48295805D01*
G37*
G36*
X99923180Y-54588225D02*
X110053303Y-55700068D01*
X109982709Y-93802739D01*
X99940829Y-95796997D01*
X99923180Y-54588225D01*
X99923180Y-54588225D01*
G37*
G36*
X99870236Y-111274553D02*
X110000358Y-109845041D01*
X110018006Y-149730190D01*
X99746697Y-148953665D01*
X99870236Y-111274553D01*
X99870236Y-111274553D01*
G37*
G36*
X101324015Y-157195722D02*
X101311805Y-157220107D01*
X101300961Y-157244173D01*
X101291452Y-157267923D01*
X101283247Y-157291361D01*
X101276316Y-157314489D01*
X101270625Y-157337312D01*
X101266146Y-157359832D01*
X101262846Y-157382053D01*
X101260694Y-157403978D01*
X101259659Y-157425610D01*
X101259711Y-157446954D01*
X101260817Y-157468012D01*
X101262948Y-157488787D01*
X101266070Y-157509283D01*
X101270155Y-157529504D01*
X101275170Y-157549452D01*
X101281084Y-157569131D01*
X101287866Y-157588544D01*
X101295485Y-157607695D01*
X101303911Y-157626587D01*
X101313111Y-157645224D01*
X101323054Y-157663608D01*
X101333710Y-157681744D01*
X101345048Y-157699633D01*
X101357036Y-157717281D01*
X101369642Y-157734689D01*
X101382837Y-157751863D01*
X101396589Y-157768804D01*
X101410866Y-157785516D01*
X101425638Y-157802002D01*
X101440874Y-157818267D01*
X101456541Y-157834313D01*
X101472610Y-157850143D01*
X101489049Y-157865761D01*
X101505827Y-157881171D01*
X101522913Y-157896375D01*
X101540276Y-157911377D01*
X101557883Y-157926181D01*
X101575706Y-157940789D01*
X101593712Y-157955205D01*
X101611869Y-157969433D01*
X101630148Y-157983475D01*
X101648517Y-157997336D01*
X101666945Y-158011017D01*
X101685400Y-158024524D01*
X101703852Y-158037859D01*
X101722269Y-158051025D01*
X101740620Y-158064026D01*
X101758874Y-158076865D01*
X101777001Y-158089546D01*
X101794968Y-158102071D01*
X101812745Y-158114445D01*
X101830301Y-158126671D01*
X101812938Y-158133215D01*
X101795120Y-158139643D01*
X101776877Y-158145968D01*
X101758237Y-158152203D01*
X101739230Y-158158364D01*
X101719885Y-158164463D01*
X101700231Y-158170515D01*
X101680297Y-158176534D01*
X101660113Y-158182534D01*
X101639708Y-158188528D01*
X101619111Y-158194532D01*
X101598351Y-158200558D01*
X101577457Y-158206621D01*
X101556459Y-158212734D01*
X101535386Y-158218913D01*
X101514266Y-158225170D01*
X101493130Y-158231520D01*
X101472007Y-158237976D01*
X101450925Y-158244553D01*
X101429914Y-158251265D01*
X101409003Y-158258126D01*
X101388222Y-158265149D01*
X101367599Y-158272348D01*
X101347164Y-158279739D01*
X101326945Y-158287334D01*
X101306973Y-158295147D01*
X101287276Y-158303193D01*
X101267884Y-158311485D01*
X101248825Y-158320038D01*
X101230130Y-158328866D01*
X101211827Y-158337982D01*
X101193945Y-158347400D01*
X101176514Y-158357135D01*
X101159562Y-158367200D01*
X101143120Y-158377610D01*
X101127216Y-158388378D01*
X101111879Y-158399519D01*
X101097139Y-158411046D01*
X101083025Y-158422973D01*
X101069566Y-158435314D01*
X101056791Y-158448084D01*
X101044730Y-158461296D01*
X101033411Y-158474965D01*
X101022865Y-158489104D01*
X101013120Y-158503727D01*
X101004205Y-158518848D01*
X100996149Y-158534481D01*
X100988983Y-158550641D01*
X100982734Y-158567341D01*
X100977432Y-158584595D01*
X100973107Y-158602417D01*
X100969788Y-158620822D01*
X100967503Y-158639822D01*
X100966283Y-158659433D01*
X100966156Y-158679667D01*
X100967151Y-158700540D01*
X100969298Y-158722065D01*
X100972625Y-158744256D01*
X100977163Y-158767127D01*
X100982941Y-158790692D01*
X100989986Y-158814965D01*
X100998330Y-158839960D01*
X101008000Y-158865691D01*
X101025730Y-158864237D01*
X101043733Y-158863184D01*
X101062001Y-158862525D01*
X101080527Y-158862247D01*
X101099307Y-158862343D01*
X101118332Y-158862803D01*
X101137597Y-158863616D01*
X101157094Y-158864774D01*
X101176819Y-158866267D01*
X101196763Y-158868085D01*
X101216921Y-158870218D01*
X101237285Y-158872658D01*
X101257851Y-158875394D01*
X101278610Y-158878416D01*
X101299557Y-158881716D01*
X101320684Y-158885284D01*
X101341987Y-158889109D01*
X101363457Y-158893183D01*
X101385089Y-158897496D01*
X101406876Y-158902038D01*
X101428811Y-158906799D01*
X101450889Y-158911771D01*
X101473102Y-158916943D01*
X101495444Y-158922306D01*
X101517909Y-158927850D01*
X101540489Y-158933566D01*
X101563180Y-158939444D01*
X101585973Y-158945475D01*
X101608863Y-158951648D01*
X101631843Y-158957954D01*
X101654907Y-158964385D01*
X101678048Y-158970929D01*
X101701259Y-158977578D01*
X101724535Y-158984322D01*
X101747868Y-158991151D01*
X101771252Y-158998055D01*
X101794681Y-159005026D01*
X101818148Y-159012054D01*
X101841647Y-159019128D01*
X101865170Y-159026240D01*
X101888713Y-159033379D01*
X101912267Y-159040537D01*
X101935827Y-159047703D01*
X101959387Y-159054868D01*
X101982939Y-159062022D01*
X102006477Y-159069156D01*
X102029995Y-159076260D01*
X102053486Y-159083325D01*
X102076944Y-159090341D01*
X102100362Y-159097298D01*
X102123733Y-159104187D01*
X102147052Y-159110998D01*
X102170311Y-159117722D01*
X102193505Y-159124349D01*
X102216626Y-159130869D01*
X102239669Y-159137273D01*
X102262626Y-159143551D01*
X102285492Y-159149694D01*
X102308259Y-159155691D01*
X102330922Y-159161535D01*
X102353473Y-159167214D01*
X102375906Y-159172719D01*
X102398216Y-159178041D01*
X102420394Y-159183170D01*
X102442435Y-159188096D01*
X102464333Y-159192810D01*
X102486080Y-159197303D01*
X102507670Y-159201564D01*
X102529098Y-159205584D01*
X102550355Y-159209354D01*
X102571437Y-159212863D01*
X102592335Y-159216103D01*
X102613045Y-159219064D01*
X102633558Y-159221735D01*
X102653870Y-159224108D01*
X102673973Y-159226173D01*
X102693860Y-159227920D01*
X102713526Y-159229340D01*
X102732964Y-159230424D01*
X102752167Y-159231160D01*
X102771129Y-159231541D01*
X102789844Y-159231556D01*
X102808304Y-159231195D01*
X102826503Y-159230450D01*
X102844435Y-159229310D01*
X102862094Y-159227766D01*
X102879473Y-159225809D01*
X102896565Y-159223428D01*
X102913363Y-159220615D01*
X102929862Y-159217359D01*
X102946055Y-159213651D01*
X102961936Y-159209481D01*
X102977497Y-159204840D01*
X102992733Y-159199719D01*
X103007636Y-159194107D01*
X103022201Y-159187995D01*
X103036421Y-159181373D01*
X103050290Y-159174232D01*
X103063800Y-159166562D01*
X103076945Y-159158354D01*
X103089720Y-159149598D01*
X103102117Y-159140285D01*
X103114130Y-159130404D01*
X103125752Y-159119946D01*
X103136977Y-159108903D01*
X103147799Y-159097263D01*
X103158211Y-159085017D01*
X103168206Y-159072157D01*
X103177778Y-159058671D01*
X103186921Y-159044552D01*
X103195627Y-159029788D01*
X103203891Y-159014371D01*
X103211706Y-158998291D01*
X103219066Y-158981538D01*
X103225963Y-158964102D01*
X103232392Y-158945975D01*
X103238346Y-158927146D01*
X103243819Y-158907606D01*
X103236362Y-158893735D01*
X103228400Y-158880418D01*
X103219951Y-158867643D01*
X103211030Y-158855395D01*
X103201653Y-158843660D01*
X103191837Y-158832426D01*
X103181596Y-158821678D01*
X103170948Y-158811403D01*
X103159909Y-158801586D01*
X103148494Y-158792215D01*
X103136719Y-158783276D01*
X103124601Y-158774754D01*
X103112155Y-158766637D01*
X103099398Y-158758910D01*
X103086346Y-158751560D01*
X103073015Y-158744574D01*
X103059420Y-158737936D01*
X103045578Y-158731635D01*
X103031505Y-158725655D01*
X103017217Y-158719984D01*
X103002730Y-158714607D01*
X102988060Y-158709512D01*
X102973223Y-158704684D01*
X102958235Y-158700109D01*
X102943112Y-158695775D01*
X102927870Y-158691666D01*
X102912526Y-158687771D01*
X102897095Y-158684074D01*
X102881594Y-158680562D01*
X102866038Y-158677222D01*
X102850443Y-158674039D01*
X102834826Y-158671001D01*
X102819203Y-158668093D01*
X102803589Y-158665302D01*
X102788000Y-158662614D01*
X102772454Y-158660015D01*
X102756965Y-158657492D01*
X102741550Y-158655030D01*
X102726225Y-158652618D01*
X102711006Y-158650239D01*
X102695909Y-158647882D01*
X102680950Y-158645532D01*
X102666145Y-158643175D01*
X102651510Y-158640798D01*
X102637061Y-158638387D01*
X102622814Y-158635929D01*
X102608786Y-158633409D01*
X102594992Y-158630815D01*
X102581448Y-158628132D01*
X102568171Y-158625346D01*
X102555176Y-158622445D01*
X102542480Y-158619414D01*
X102530098Y-158616239D01*
X102518047Y-158612908D01*
X102506342Y-158609405D01*
X102495000Y-158605718D01*
X102484037Y-158601833D01*
X102473469Y-158597737D01*
X102463312Y-158593414D01*
X102453581Y-158588853D01*
X102444294Y-158584038D01*
X102435465Y-158578957D01*
X102427112Y-158573596D01*
X102419250Y-158567941D01*
X102411894Y-158561978D01*
X102405062Y-158555694D01*
X102398770Y-158549074D01*
X102393032Y-158542106D01*
X102387866Y-158534776D01*
X102383287Y-158527069D01*
X102379312Y-158518973D01*
X102375956Y-158510473D01*
X102373236Y-158501556D01*
X102371167Y-158492208D01*
X102369766Y-158482415D01*
X102369049Y-158472165D01*
X102369032Y-158461442D01*
X102369730Y-158450234D01*
X102371160Y-158438526D01*
X102373338Y-158426305D01*
X102376280Y-158413558D01*
X102380002Y-158400270D01*
X102384520Y-158386428D01*
X102389850Y-158372019D01*
X102396008Y-158357028D01*
X102403010Y-158341441D01*
X102410873Y-158325246D01*
X102419612Y-158308429D01*
X102429243Y-158290975D01*
X102439782Y-158272871D01*
X102451246Y-158254104D01*
X102463651Y-158234659D01*
X102477012Y-158214523D01*
X102491346Y-158193683D01*
X102506668Y-158172124D01*
X102522995Y-158149834D01*
X102509502Y-158118230D01*
X102496733Y-158088518D01*
X102484725Y-158060651D01*
X102473513Y-158034584D01*
X102463136Y-158010269D01*
X102453629Y-157987660D01*
X102445029Y-157966713D01*
X102437372Y-157947379D01*
X102430694Y-157929612D01*
X102425033Y-157913368D01*
X102420425Y-157898598D01*
X102416906Y-157885258D01*
X102414513Y-157873300D01*
X102413282Y-157862678D01*
X102413250Y-157853347D01*
X102414453Y-157845260D01*
X102416928Y-157838370D01*
X102420711Y-157832631D01*
X102425839Y-157827998D01*
X102432349Y-157824423D01*
X102440276Y-157821861D01*
X102449658Y-157820265D01*
X102460530Y-157819589D01*
X102472930Y-157819786D01*
X102486894Y-157820811D01*
X102502458Y-157822617D01*
X102519660Y-157825159D01*
X102538534Y-157828388D01*
X102559119Y-157832260D01*
X102581450Y-157836728D01*
X102605564Y-157841746D01*
X102631497Y-157847268D01*
X102659286Y-157853246D01*
X102688968Y-157859636D01*
X102720579Y-157866390D01*
X102754155Y-157873463D01*
X102789733Y-157880808D01*
X102827350Y-157888379D01*
X102855350Y-157890835D01*
X102882579Y-157892944D01*
X102909044Y-157894711D01*
X102934752Y-157896141D01*
X102959709Y-157897239D01*
X102983921Y-157898011D01*
X103007395Y-157898463D01*
X103030137Y-157898599D01*
X103052155Y-157898425D01*
X103073453Y-157897947D01*
X103094039Y-157897169D01*
X103113919Y-157896098D01*
X103133099Y-157894738D01*
X103151587Y-157893095D01*
X103169388Y-157891173D01*
X103186509Y-157888980D01*
X103202955Y-157886519D01*
X103218735Y-157883797D01*
X103233854Y-157880818D01*
X103248318Y-157877588D01*
X103262135Y-157874113D01*
X103275309Y-157870397D01*
X103287849Y-157866446D01*
X103299760Y-157862266D01*
X103311049Y-157857861D01*
X103321722Y-157853238D01*
X103331785Y-157848401D01*
X103341246Y-157843356D01*
X103350110Y-157838108D01*
X103358384Y-157832662D01*
X103366075Y-157827025D01*
X103373188Y-157821201D01*
X103379731Y-157815195D01*
X103385709Y-157809014D01*
X103391130Y-157802662D01*
X103395999Y-157796145D01*
X103400323Y-157789467D01*
X103404108Y-157782636D01*
X103407362Y-157775655D01*
X103410090Y-157768530D01*
X103412298Y-157761267D01*
X103413994Y-157753870D01*
X103415183Y-157746346D01*
X103415873Y-157738700D01*
X103416069Y-157730936D01*
X103415778Y-157723061D01*
X103415006Y-157715079D01*
X103413760Y-157706997D01*
X103412047Y-157698819D01*
X103409872Y-157690551D01*
X103407242Y-157682198D01*
X103404164Y-157673765D01*
X103400644Y-157665258D01*
X103396689Y-157656683D01*
X103392304Y-157648044D01*
X103387497Y-157639346D01*
X103382273Y-157630597D01*
X103376640Y-157621800D01*
X103370604Y-157612960D01*
X103364170Y-157604085D01*
X103357346Y-157595178D01*
X103350138Y-157586245D01*
X103342552Y-157577291D01*
X103334596Y-157568323D01*
X103326274Y-157559344D01*
X103317594Y-157550361D01*
X103308563Y-157541379D01*
X103299186Y-157532404D01*
X103289470Y-157523439D01*
X103279421Y-157514492D01*
X103269047Y-157505567D01*
X103258353Y-157496670D01*
X103247345Y-157487806D01*
X103236031Y-157478980D01*
X103224417Y-157470198D01*
X103212508Y-157461466D01*
X103200313Y-157452787D01*
X103187836Y-157444169D01*
X103175084Y-157435616D01*
X103162065Y-157427133D01*
X103148784Y-157418726D01*
X103135247Y-157410401D01*
X103121462Y-157402162D01*
X103107434Y-157394015D01*
X103093170Y-157385966D01*
X103078677Y-157378019D01*
X103063961Y-157370181D01*
X103049028Y-157362455D01*
X103033885Y-157354849D01*
X103018538Y-157347367D01*
X103002994Y-157340014D01*
X102987259Y-157332797D01*
X102971340Y-157325719D01*
X102955242Y-157318788D01*
X102938973Y-157312007D01*
X102922539Y-157305382D01*
X102905946Y-157298919D01*
X102889201Y-157292624D01*
X102872310Y-157286500D01*
X102855280Y-157280555D01*
X102838117Y-157274792D01*
X102820827Y-157269218D01*
X102803417Y-157263838D01*
X102785894Y-157258657D01*
X102768263Y-157253681D01*
X102750532Y-157248915D01*
X102732706Y-157244364D01*
X102714793Y-157240033D01*
X102696798Y-157235929D01*
X102678728Y-157232056D01*
X102660589Y-157228419D01*
X102642389Y-157225025D01*
X102624132Y-157221878D01*
X102605827Y-157218984D01*
X102587479Y-157216349D01*
X102569094Y-157213976D01*
X102550679Y-157211873D01*
X102532241Y-157210044D01*
X102513786Y-157208495D01*
X102495320Y-157207230D01*
X102476851Y-157206256D01*
X102458383Y-157205578D01*
X102439924Y-157205200D01*
X102421480Y-157205129D01*
X102403058Y-157205370D01*
X102384664Y-157205928D01*
X102366304Y-157206808D01*
X102347985Y-157208017D01*
X102329714Y-157209558D01*
X102311496Y-157211438D01*
X102293338Y-157213662D01*
X102275247Y-157216235D01*
X102257230Y-157219163D01*
X102239291Y-157222451D01*
X102221439Y-157226105D01*
X102203679Y-157230129D01*
X102187045Y-157231553D01*
X102169605Y-157231975D01*
X102151408Y-157231459D01*
X102132499Y-157230064D01*
X102112928Y-157227853D01*
X102092741Y-157224888D01*
X102071985Y-157221230D01*
X102050708Y-157216941D01*
X102028957Y-157212083D01*
X102006780Y-157206716D01*
X101984224Y-157200904D01*
X101961336Y-157194708D01*
X101938164Y-157188188D01*
X101914755Y-157181408D01*
X101891157Y-157174428D01*
X101867416Y-157167311D01*
X101843580Y-157160118D01*
X101819697Y-157152910D01*
X101795814Y-157145750D01*
X101771978Y-157138699D01*
X101748237Y-157131818D01*
X101724638Y-157125171D01*
X101701228Y-157118817D01*
X101678055Y-157112819D01*
X101655166Y-157107238D01*
X101632608Y-157102137D01*
X101610430Y-157097576D01*
X101588677Y-157093618D01*
X101567399Y-157090325D01*
X101546641Y-157087757D01*
X101526451Y-157085976D01*
X101506877Y-157085045D01*
X101487966Y-157085025D01*
X101469766Y-157085977D01*
X101452323Y-157087964D01*
X101435686Y-157091047D01*
X101419901Y-157095287D01*
X101405016Y-157100747D01*
X101391078Y-157107488D01*
X101378135Y-157115571D01*
X101366233Y-157125059D01*
X101355421Y-157136012D01*
X101345746Y-157148494D01*
X101337255Y-157162565D01*
X101329995Y-157178287D01*
X101324015Y-157195722D01*
X101324015Y-157195722D01*
G37*
G36*
X101641684Y-155547811D02*
X101632654Y-155571223D01*
X101624819Y-155593907D01*
X101618154Y-155615878D01*
X101612636Y-155637148D01*
X101608240Y-155657731D01*
X101604945Y-155677639D01*
X101602725Y-155696885D01*
X101601557Y-155715483D01*
X101601418Y-155733444D01*
X101602284Y-155750783D01*
X101604130Y-155767513D01*
X101606934Y-155783645D01*
X101610672Y-155799194D01*
X101615321Y-155814173D01*
X101620855Y-155828593D01*
X101627253Y-155842469D01*
X101634490Y-155855813D01*
X101642542Y-155868638D01*
X101651386Y-155880957D01*
X101660999Y-155892784D01*
X101671356Y-155904131D01*
X101682434Y-155915011D01*
X101694209Y-155925438D01*
X101706657Y-155935423D01*
X101719756Y-155944981D01*
X101733481Y-155954124D01*
X101747808Y-155962865D01*
X101762715Y-155971217D01*
X101778176Y-155979194D01*
X101794170Y-155986808D01*
X101810671Y-155994071D01*
X101827656Y-156000998D01*
X101845102Y-156007602D01*
X101862985Y-156013894D01*
X101881282Y-156019888D01*
X101899968Y-156025598D01*
X101919020Y-156031036D01*
X101938414Y-156036215D01*
X101958127Y-156041148D01*
X101978135Y-156045848D01*
X101998415Y-156050328D01*
X102018942Y-156054602D01*
X102039693Y-156058681D01*
X102060644Y-156062580D01*
X102081772Y-156066310D01*
X102103054Y-156069886D01*
X102124464Y-156073320D01*
X102145981Y-156076625D01*
X102167579Y-156079814D01*
X102189236Y-156082900D01*
X102210927Y-156085896D01*
X102232630Y-156088815D01*
X102254320Y-156091670D01*
X102275974Y-156094474D01*
X102297567Y-156097240D01*
X102319078Y-156099982D01*
X102340481Y-156102711D01*
X102361753Y-156105441D01*
X102382871Y-156108186D01*
X102403810Y-156110957D01*
X102424548Y-156113768D01*
X102445060Y-156116632D01*
X102465323Y-156119563D01*
X102485313Y-156122572D01*
X102505006Y-156125673D01*
X102524380Y-156128879D01*
X102543409Y-156132204D01*
X102562071Y-156135659D01*
X102580342Y-156139258D01*
X102598198Y-156143014D01*
X102615616Y-156146940D01*
X102632571Y-156151049D01*
X102649041Y-156155353D01*
X102665001Y-156159867D01*
X102680429Y-156164603D01*
X102695299Y-156169573D01*
X102709589Y-156174792D01*
X102723275Y-156180271D01*
X102736333Y-156186025D01*
X102761404Y-156192051D01*
X102785793Y-156198254D01*
X102809506Y-156204629D01*
X102832548Y-156211171D01*
X102854926Y-156217877D01*
X102876643Y-156224742D01*
X102897706Y-156231763D01*
X102918120Y-156238936D01*
X102937891Y-156246255D01*
X102957024Y-156253718D01*
X102975524Y-156261320D01*
X102993396Y-156269058D01*
X103010647Y-156276926D01*
X103027282Y-156284922D01*
X103043306Y-156293040D01*
X103058724Y-156301277D01*
X103073542Y-156309629D01*
X103087766Y-156318092D01*
X103101400Y-156326661D01*
X103114451Y-156335333D01*
X103126923Y-156344103D01*
X103138823Y-156352968D01*
X103150155Y-156361923D01*
X103160925Y-156370965D01*
X103171138Y-156380088D01*
X103180801Y-156389290D01*
X103189917Y-156398566D01*
X103198493Y-156407912D01*
X103206535Y-156417324D01*
X103214046Y-156426798D01*
X103221034Y-156436329D01*
X103227504Y-156445914D01*
X103233460Y-156455549D01*
X103238908Y-156465230D01*
X103243854Y-156474952D01*
X103248304Y-156484711D01*
X103252262Y-156494504D01*
X103255733Y-156504326D01*
X103258725Y-156514173D01*
X103261241Y-156524042D01*
X103263288Y-156533927D01*
X103264870Y-156543826D01*
X103265993Y-156553733D01*
X103266663Y-156563645D01*
X103266885Y-156573558D01*
X103266665Y-156583468D01*
X103266007Y-156593371D01*
X103264918Y-156603262D01*
X103263402Y-156613138D01*
X103261466Y-156622994D01*
X103259114Y-156632826D01*
X103256352Y-156642631D01*
X103253186Y-156652404D01*
X103249621Y-156662141D01*
X103245662Y-156671838D01*
X103241315Y-156681491D01*
X103236585Y-156691096D01*
X103231477Y-156700649D01*
X103225998Y-156710146D01*
X103220152Y-156719583D01*
X103213945Y-156728955D01*
X103207383Y-156738259D01*
X103200470Y-156747490D01*
X103193213Y-156756645D01*
X103185616Y-156765719D01*
X103177685Y-156774709D01*
X103169426Y-156783610D01*
X103160843Y-156792417D01*
X103151944Y-156801128D01*
X103142731Y-156809738D01*
X103133212Y-156818243D01*
X103123392Y-156826639D01*
X103113276Y-156834922D01*
X103102870Y-156843087D01*
X103092178Y-156851131D01*
X103081207Y-156859050D01*
X103069961Y-156866839D01*
X103058447Y-156874495D01*
X103046670Y-156882013D01*
X103034634Y-156889389D01*
X103022347Y-156896620D01*
X103009812Y-156903701D01*
X102997035Y-156910628D01*
X102984023Y-156917396D01*
X102970779Y-156924003D01*
X102957311Y-156930444D01*
X102943622Y-156936715D01*
X102929720Y-156942811D01*
X102915608Y-156948729D01*
X102901292Y-156954465D01*
X102886779Y-156960014D01*
X102872072Y-156965372D01*
X102857179Y-156970536D01*
X102842103Y-156975502D01*
X102826852Y-156980264D01*
X102811429Y-156984820D01*
X102795841Y-156989165D01*
X102780092Y-156993295D01*
X102764189Y-156997205D01*
X102748136Y-157000893D01*
X102731940Y-157004354D01*
X102715606Y-157007583D01*
X102699138Y-157010577D01*
X102682543Y-157013332D01*
X102665826Y-157015843D01*
X102648992Y-157018106D01*
X102632047Y-157020118D01*
X102614996Y-157021875D01*
X102597844Y-157023371D01*
X102580598Y-157024604D01*
X102563262Y-157025569D01*
X102545842Y-157026262D01*
X102528344Y-157026679D01*
X102510772Y-157026816D01*
X102493133Y-157026669D01*
X102475431Y-157026233D01*
X102457672Y-157025505D01*
X102439862Y-157024481D01*
X102422005Y-157023156D01*
X102404108Y-157021527D01*
X102386176Y-157019589D01*
X102368214Y-157017338D01*
X102350228Y-157014771D01*
X102332222Y-157011883D01*
X102314204Y-157008670D01*
X102296177Y-157005128D01*
X102278148Y-157001253D01*
X102260121Y-156997042D01*
X102242103Y-156992488D01*
X102224098Y-156987590D01*
X102206113Y-156982342D01*
X102188152Y-156976741D01*
X102170221Y-156970783D01*
X102152325Y-156964463D01*
X102134470Y-156957777D01*
X102116662Y-156950722D01*
X102098905Y-156943293D01*
X102081205Y-156935486D01*
X102063568Y-156927297D01*
X102045999Y-156918723D01*
X102028503Y-156909758D01*
X102011086Y-156900399D01*
X101993754Y-156890643D01*
X101976511Y-156880483D01*
X101959363Y-156869918D01*
X101942316Y-156858942D01*
X101925375Y-156847552D01*
X101908545Y-156835743D01*
X101891832Y-156823512D01*
X101864809Y-156824415D01*
X101838624Y-156825538D01*
X101813270Y-156826880D01*
X101788738Y-156828436D01*
X101765022Y-156830203D01*
X101742114Y-156832177D01*
X101720005Y-156834356D01*
X101698688Y-156836735D01*
X101678155Y-156839311D01*
X101658399Y-156842081D01*
X101639412Y-156845041D01*
X101621185Y-156848188D01*
X101603713Y-156851519D01*
X101586985Y-156855029D01*
X101570996Y-156858716D01*
X101555737Y-156862576D01*
X101541200Y-156866606D01*
X101527378Y-156870801D01*
X101514263Y-156875160D01*
X101501847Y-156879678D01*
X101490123Y-156884351D01*
X101479083Y-156889177D01*
X101468719Y-156894152D01*
X101459023Y-156899273D01*
X101449987Y-156904535D01*
X101441605Y-156909937D01*
X101433867Y-156915473D01*
X101426768Y-156921141D01*
X101420297Y-156926937D01*
X101414449Y-156932858D01*
X101409215Y-156938901D01*
X101404588Y-156945062D01*
X101400559Y-156951337D01*
X101397121Y-156957723D01*
X101394267Y-156964217D01*
X101391988Y-156970815D01*
X101390277Y-156977513D01*
X101389127Y-156984309D01*
X101388528Y-156991199D01*
X101388475Y-156998179D01*
X101388958Y-157005246D01*
X101389971Y-157012397D01*
X101391505Y-157019628D01*
X101393553Y-157026935D01*
X101396106Y-157034316D01*
X101399159Y-157041766D01*
X101402701Y-157049283D01*
X101406727Y-157056862D01*
X101411228Y-157064501D01*
X101416196Y-157072196D01*
X101421623Y-157079943D01*
X101427503Y-157087740D01*
X101433827Y-157095582D01*
X101440587Y-157103466D01*
X101447776Y-157111389D01*
X101455387Y-157119347D01*
X101463410Y-157127338D01*
X101471839Y-157135356D01*
X101480666Y-157143400D01*
X101489883Y-157151465D01*
X101499482Y-157159548D01*
X101509456Y-157167646D01*
X101519797Y-157175755D01*
X101530497Y-157183871D01*
X101541548Y-157191992D01*
X101552943Y-157200114D01*
X101564674Y-157208233D01*
X101576734Y-157216347D01*
X101589114Y-157224450D01*
X101601807Y-157232541D01*
X101614805Y-157240616D01*
X101628100Y-157248670D01*
X101641685Y-157256702D01*
X101655551Y-157264707D01*
X101669692Y-157272681D01*
X101684100Y-157280622D01*
X101698766Y-157288526D01*
X101713683Y-157296390D01*
X101728843Y-157304210D01*
X101744239Y-157311982D01*
X101759863Y-157319703D01*
X101775706Y-157327371D01*
X101791762Y-157334980D01*
X101808023Y-157342529D01*
X101824480Y-157350012D01*
X101841127Y-157357428D01*
X101857955Y-157364773D01*
X101874957Y-157372042D01*
X101892125Y-157379233D01*
X101909451Y-157386342D01*
X101926927Y-157393366D01*
X101944546Y-157400302D01*
X101962301Y-157407145D01*
X101980182Y-157413893D01*
X101998183Y-157420541D01*
X102016296Y-157427087D01*
X102034513Y-157433528D01*
X102052827Y-157439859D01*
X102071229Y-157446077D01*
X102089712Y-157452179D01*
X102108269Y-157458161D01*
X102126891Y-157464020D01*
X102145570Y-157469753D01*
X102164300Y-157475355D01*
X102183072Y-157480824D01*
X102201878Y-157486156D01*
X102220712Y-157491348D01*
X102239564Y-157496396D01*
X102258428Y-157501297D01*
X102277296Y-157506047D01*
X102296159Y-157510643D01*
X102315011Y-157515082D01*
X102333843Y-157519359D01*
X102352647Y-157523472D01*
X102371417Y-157527417D01*
X102390144Y-157531191D01*
X102408821Y-157534790D01*
X102427439Y-157538210D01*
X102445992Y-157541449D01*
X102464471Y-157544503D01*
X102482868Y-157547369D01*
X102501177Y-157550042D01*
X102519389Y-157552520D01*
X102537496Y-157554799D01*
X102555490Y-157556876D01*
X102573365Y-157558747D01*
X102591112Y-157560408D01*
X102608724Y-157561857D01*
X102626192Y-157563090D01*
X102643510Y-157564104D01*
X102660668Y-157564894D01*
X102677661Y-157565458D01*
X102694479Y-157565792D01*
X102711116Y-157565892D01*
X102727563Y-157565756D01*
X102743812Y-157565380D01*
X102759857Y-157564760D01*
X102775688Y-157563893D01*
X102791300Y-157562775D01*
X102806683Y-157561404D01*
X102821830Y-157559774D01*
X102836733Y-157557884D01*
X102858809Y-157569028D01*
X102881006Y-157579431D01*
X102903304Y-157589096D01*
X102925684Y-157598023D01*
X102948125Y-157606214D01*
X102970607Y-157613672D01*
X102993112Y-157620396D01*
X103015619Y-157626389D01*
X103038108Y-157631653D01*
X103060559Y-157636188D01*
X103082953Y-157639997D01*
X103105270Y-157643080D01*
X103127491Y-157645440D01*
X103149594Y-157647078D01*
X103171561Y-157647995D01*
X103193372Y-157648194D01*
X103215006Y-157647675D01*
X103236445Y-157646439D01*
X103257668Y-157644490D01*
X103278655Y-157641827D01*
X103299387Y-157638454D01*
X103319844Y-157634370D01*
X103340006Y-157629578D01*
X103359853Y-157624079D01*
X103379366Y-157617874D01*
X103398524Y-157610966D01*
X103417308Y-157603356D01*
X103435698Y-157595045D01*
X103453675Y-157586035D01*
X103471217Y-157576327D01*
X103488307Y-157565923D01*
X103504923Y-157554824D01*
X103521046Y-157543032D01*
X103536656Y-157530549D01*
X103551734Y-157517376D01*
X103566260Y-157503514D01*
X103580213Y-157488965D01*
X103593574Y-157473730D01*
X103606323Y-157457812D01*
X103618441Y-157441211D01*
X103629907Y-157423929D01*
X103640702Y-157405968D01*
X103650806Y-157387329D01*
X103660200Y-157368013D01*
X103668862Y-157348023D01*
X103676774Y-157327359D01*
X103683916Y-157306024D01*
X103690268Y-157284018D01*
X103695810Y-157261344D01*
X103700522Y-157238003D01*
X103704385Y-157213995D01*
X103707378Y-157189324D01*
X103709483Y-157163990D01*
X103710678Y-157137995D01*
X103710945Y-157111340D01*
X103716490Y-157088582D01*
X103721988Y-157065729D01*
X103727430Y-157042790D01*
X103732808Y-157019775D01*
X103738112Y-156996691D01*
X103743335Y-156973549D01*
X103748467Y-156950356D01*
X103753499Y-156927122D01*
X103758424Y-156903855D01*
X103763231Y-156880564D01*
X103767913Y-156857258D01*
X103772461Y-156833946D01*
X103776865Y-156810637D01*
X103781118Y-156787339D01*
X103785211Y-156764061D01*
X103789134Y-156740812D01*
X103792880Y-156717602D01*
X103796438Y-156694438D01*
X103799802Y-156671330D01*
X103802961Y-156648286D01*
X103805908Y-156625315D01*
X103808633Y-156602426D01*
X103811127Y-156579629D01*
X103813383Y-156556931D01*
X103815391Y-156534342D01*
X103817143Y-156511870D01*
X103818629Y-156489524D01*
X103819842Y-156467313D01*
X103820772Y-156445246D01*
X103821411Y-156423332D01*
X103821749Y-156401579D01*
X103821779Y-156379997D01*
X103821491Y-156358594D01*
X103820878Y-156337378D01*
X103819929Y-156316360D01*
X103818636Y-156295547D01*
X103816991Y-156274949D01*
X103814985Y-156254574D01*
X103812610Y-156234431D01*
X103809855Y-156214529D01*
X103806713Y-156194877D01*
X103803176Y-156175483D01*
X103799233Y-156156357D01*
X103794877Y-156137507D01*
X103790099Y-156118942D01*
X103784890Y-156100671D01*
X103779241Y-156082703D01*
X103773144Y-156065047D01*
X103766590Y-156047710D01*
X103759570Y-156030703D01*
X103752076Y-156014034D01*
X103744098Y-155997712D01*
X103735628Y-155981746D01*
X103726658Y-155966144D01*
X103717178Y-155950916D01*
X103707180Y-155936069D01*
X103696655Y-155921614D01*
X103685594Y-155907558D01*
X103673990Y-155893911D01*
X103661832Y-155880682D01*
X103649112Y-155867879D01*
X103635822Y-155855511D01*
X103621952Y-155843587D01*
X103607495Y-155832115D01*
X103592441Y-155821106D01*
X103576781Y-155810567D01*
X103560508Y-155800507D01*
X103543611Y-155790935D01*
X103526083Y-155781860D01*
X103507915Y-155773291D01*
X103489097Y-155765236D01*
X103469622Y-155757705D01*
X103449481Y-155750706D01*
X103428664Y-155744248D01*
X103407163Y-155738340D01*
X103384970Y-155732990D01*
X103362075Y-155728208D01*
X103338470Y-155724003D01*
X103314146Y-155720382D01*
X103289095Y-155717356D01*
X103263307Y-155714933D01*
X103236775Y-155713121D01*
X103209489Y-155711929D01*
X103181440Y-155711367D01*
X103160125Y-155711090D01*
X103138396Y-155710258D01*
X103116268Y-155708895D01*
X103093758Y-155707024D01*
X103070883Y-155704667D01*
X103047660Y-155701847D01*
X103024104Y-155698588D01*
X103000232Y-155694910D01*
X102976061Y-155690839D01*
X102951608Y-155686395D01*
X102926888Y-155681603D01*
X102901920Y-155676485D01*
X102876718Y-155671063D01*
X102851299Y-155665361D01*
X102825681Y-155659401D01*
X102799880Y-155653206D01*
X102773912Y-155646800D01*
X102747793Y-155640204D01*
X102721541Y-155633441D01*
X102695172Y-155626535D01*
X102668702Y-155619507D01*
X102642148Y-155612382D01*
X102615527Y-155605181D01*
X102588854Y-155597928D01*
X102562147Y-155590645D01*
X102535423Y-155583355D01*
X102508697Y-155576082D01*
X102481986Y-155568846D01*
X102455307Y-155561673D01*
X102428676Y-155554583D01*
X102402110Y-155547601D01*
X102375625Y-155540748D01*
X102349238Y-155534048D01*
X102322966Y-155527524D01*
X102296825Y-155521198D01*
X102270831Y-155515092D01*
X102245002Y-155509231D01*
X102219353Y-155503637D01*
X102193901Y-155498331D01*
X102168663Y-155493339D01*
X102143655Y-155488681D01*
X102118894Y-155484381D01*
X102094396Y-155480461D01*
X102070178Y-155476946D01*
X102046257Y-155473856D01*
X102022649Y-155471215D01*
X101999370Y-155469047D01*
X101976437Y-155467372D01*
X101953867Y-155466216D01*
X101931676Y-155465599D01*
X101909881Y-155465546D01*
X101888497Y-155466078D01*
X101867543Y-155467219D01*
X101847034Y-155468992D01*
X101826987Y-155471419D01*
X101807418Y-155474522D01*
X101788345Y-155478326D01*
X101769783Y-155482852D01*
X101751748Y-155488124D01*
X101734259Y-155494163D01*
X101717330Y-155500994D01*
X101700980Y-155508639D01*
X101685223Y-155517120D01*
X101670077Y-155526461D01*
X101655559Y-155536683D01*
X101641684Y-155547811D01*
X101641684Y-155547811D01*
G37*
G36*
X103501925Y-154443692D02*
X103506363Y-154473115D01*
X103510341Y-154501845D01*
X103513865Y-154529890D01*
X103516939Y-154557256D01*
X103519568Y-154583952D01*
X103521758Y-154609986D01*
X103523514Y-154635366D01*
X103524841Y-154660099D01*
X103525744Y-154684193D01*
X103526228Y-154707656D01*
X103526298Y-154730497D01*
X103525960Y-154752722D01*
X103525219Y-154774339D01*
X103524080Y-154795357D01*
X103522548Y-154815784D01*
X103520628Y-154835626D01*
X103518325Y-154854892D01*
X103515644Y-154873591D01*
X103512592Y-154891728D01*
X103509172Y-154909314D01*
X103505390Y-154926354D01*
X103501251Y-154942858D01*
X103496760Y-154958832D01*
X103491923Y-154974286D01*
X103486744Y-154989226D01*
X103481229Y-155003661D01*
X103475382Y-155017597D01*
X103469210Y-155031045D01*
X103462717Y-155044010D01*
X103455908Y-155056500D01*
X103448788Y-155068525D01*
X103441364Y-155080091D01*
X103433638Y-155091206D01*
X103425618Y-155101879D01*
X103417308Y-155112116D01*
X103408713Y-155121927D01*
X103399838Y-155131318D01*
X103390689Y-155140298D01*
X103381270Y-155148874D01*
X103371587Y-155157054D01*
X103361646Y-155164846D01*
X103351450Y-155172258D01*
X103341005Y-155179298D01*
X103330317Y-155185973D01*
X103319391Y-155192292D01*
X103308231Y-155198262D01*
X103296843Y-155203891D01*
X103285232Y-155209187D01*
X103273403Y-155214158D01*
X103261361Y-155218811D01*
X103249112Y-155223154D01*
X103236661Y-155227196D01*
X103224012Y-155230944D01*
X103211171Y-155234406D01*
X103198144Y-155237590D01*
X103184934Y-155240503D01*
X103171548Y-155243154D01*
X103157990Y-155245550D01*
X103144266Y-155247699D01*
X103130381Y-155249609D01*
X103116340Y-155251287D01*
X103102148Y-155252743D01*
X103087810Y-155253982D01*
X103073332Y-155255015D01*
X103058718Y-155255847D01*
X103043974Y-155256487D01*
X103029105Y-155256943D01*
X103014116Y-155257223D01*
X102999012Y-155257334D01*
X102983798Y-155257284D01*
X102968480Y-155257082D01*
X102953062Y-155256734D01*
X102937550Y-155256249D01*
X102921950Y-155255635D01*
X102906265Y-155254900D01*
X102890501Y-155254051D01*
X102874664Y-155253096D01*
X102858759Y-155252043D01*
X102842790Y-155250900D01*
X102826763Y-155249674D01*
X102810683Y-155248374D01*
X102794555Y-155247008D01*
X102778384Y-155245582D01*
X102762176Y-155244106D01*
X102745935Y-155242586D01*
X102729668Y-155241032D01*
X102713378Y-155239449D01*
X102697071Y-155237847D01*
X102680752Y-155236234D01*
X102664427Y-155234616D01*
X102648100Y-155233002D01*
X102631777Y-155231400D01*
X102615463Y-155229818D01*
X102599162Y-155228263D01*
X102582881Y-155226743D01*
X102566624Y-155225266D01*
X102550396Y-155223841D01*
X102534203Y-155222474D01*
X102518050Y-155221173D01*
X102501942Y-155219947D01*
X102485883Y-155218803D01*
X102469880Y-155217750D01*
X102453937Y-155216794D01*
X102438060Y-155215944D01*
X102422253Y-155215207D01*
X102406522Y-155214592D01*
X102390872Y-155214107D01*
X102375307Y-155213758D01*
X102359835Y-155213555D01*
X102344458Y-155213504D01*
X102329183Y-155213614D01*
X102314015Y-155213892D01*
X102298959Y-155214346D01*
X102284019Y-155214985D01*
X102269202Y-155215816D01*
X102254512Y-155216846D01*
X102239954Y-155218085D01*
X102225534Y-155219538D01*
X102211257Y-155221215D01*
X102197128Y-155223123D01*
X102183151Y-155225271D01*
X102169333Y-155227665D01*
X102155678Y-155230313D01*
X102142192Y-155233224D01*
X102128879Y-155236406D01*
X102115746Y-155239866D01*
X102102796Y-155243611D01*
X102090035Y-155247651D01*
X102077468Y-155251992D01*
X102065101Y-155256643D01*
X102052939Y-155261611D01*
X102040986Y-155266905D01*
X102029248Y-155272531D01*
X102017730Y-155278498D01*
X102006437Y-155284814D01*
X101995374Y-155291487D01*
X101984547Y-155298524D01*
X101973961Y-155305933D01*
X101963620Y-155313722D01*
X101953530Y-155321900D01*
X101943697Y-155330473D01*
X101934124Y-155339449D01*
X101924818Y-155348837D01*
X101915783Y-155358644D01*
X101911312Y-155382042D01*
X101908134Y-155404516D01*
X101906217Y-155426085D01*
X101905531Y-155446771D01*
X101906044Y-155466595D01*
X101907725Y-155485578D01*
X101910542Y-155503739D01*
X101914463Y-155521101D01*
X101919459Y-155537684D01*
X101925496Y-155553508D01*
X101932545Y-155568594D01*
X101940573Y-155582964D01*
X101949549Y-155596637D01*
X101959442Y-155609635D01*
X101970221Y-155621979D01*
X101981854Y-155633689D01*
X101994309Y-155644786D01*
X102007556Y-155655291D01*
X102021563Y-155665224D01*
X102036299Y-155674607D01*
X102051733Y-155683460D01*
X102067832Y-155691804D01*
X102084566Y-155699660D01*
X102101903Y-155707048D01*
X102119812Y-155713989D01*
X102138262Y-155720505D01*
X102157222Y-155726615D01*
X102176659Y-155732341D01*
X102196543Y-155737704D01*
X102216842Y-155742724D01*
X102237525Y-155747422D01*
X102258560Y-155751818D01*
X102279917Y-155755934D01*
X102301564Y-155759791D01*
X102323469Y-155763408D01*
X102345601Y-155766808D01*
X102367929Y-155770010D01*
X102390421Y-155773035D01*
X102413047Y-155775905D01*
X102435774Y-155778640D01*
X102458572Y-155781261D01*
X102481409Y-155783788D01*
X102504253Y-155786243D01*
X102527074Y-155788646D01*
X102549840Y-155791018D01*
X102572519Y-155793379D01*
X102595081Y-155795751D01*
X102617493Y-155798154D01*
X102639726Y-155800610D01*
X102661746Y-155803138D01*
X102683524Y-155805760D01*
X102705027Y-155808496D01*
X102726224Y-155811368D01*
X102747084Y-155814395D01*
X102767575Y-155817599D01*
X102787667Y-155821001D01*
X102807328Y-155824621D01*
X102826526Y-155828481D01*
X102845230Y-155832600D01*
X102863408Y-155836999D01*
X102881031Y-155841701D01*
X102898065Y-155846724D01*
X102914480Y-155852091D01*
X102930244Y-155857821D01*
X102945327Y-155863936D01*
X102959695Y-155870456D01*
X102979053Y-155876036D01*
X102998708Y-155881657D01*
X103018637Y-155887298D01*
X103038819Y-155892937D01*
X103059228Y-155898552D01*
X103079842Y-155904121D01*
X103100639Y-155909624D01*
X103121594Y-155915039D01*
X103142684Y-155920344D01*
X103163887Y-155925518D01*
X103185179Y-155930539D01*
X103206538Y-155935385D01*
X103227938Y-155940036D01*
X103249359Y-155944469D01*
X103270776Y-155948663D01*
X103292166Y-155952597D01*
X103313507Y-155956249D01*
X103334774Y-155959597D01*
X103355945Y-155962620D01*
X103376996Y-155965297D01*
X103397905Y-155967605D01*
X103418648Y-155969523D01*
X103439202Y-155971031D01*
X103459544Y-155972105D01*
X103479651Y-155972726D01*
X103499499Y-155972870D01*
X103519065Y-155972517D01*
X103538326Y-155971645D01*
X103557260Y-155970233D01*
X103575842Y-155968259D01*
X103594049Y-155965701D01*
X103611859Y-155962539D01*
X103629248Y-155958749D01*
X103646193Y-155954312D01*
X103662671Y-155949205D01*
X103678659Y-155943407D01*
X103694133Y-155936896D01*
X103709071Y-155929651D01*
X103723448Y-155921650D01*
X103737243Y-155912872D01*
X103750431Y-155903295D01*
X103762990Y-155892898D01*
X103774896Y-155881659D01*
X103786126Y-155869556D01*
X103796658Y-155856569D01*
X103806467Y-155842675D01*
X103815531Y-155827853D01*
X103823826Y-155812081D01*
X103831330Y-155795338D01*
X103838019Y-155777603D01*
X103843870Y-155758854D01*
X103848859Y-155739068D01*
X103852964Y-155718226D01*
X103856162Y-155696305D01*
X103858429Y-155673284D01*
X103859741Y-155649140D01*
X103860077Y-155623854D01*
X103859412Y-155597402D01*
X103857724Y-155569764D01*
X103854989Y-155540919D01*
X103856624Y-155525882D01*
X103858467Y-155510483D01*
X103860508Y-155494735D01*
X103862738Y-155478651D01*
X103865146Y-155462245D01*
X103867724Y-155445531D01*
X103870461Y-155428523D01*
X103873347Y-155411234D01*
X103876373Y-155393678D01*
X103879530Y-155375869D01*
X103882807Y-155357820D01*
X103886195Y-155339546D01*
X103889684Y-155321060D01*
X103893264Y-155302375D01*
X103896926Y-155283506D01*
X103900660Y-155264466D01*
X103904456Y-155245269D01*
X103908304Y-155225928D01*
X103912196Y-155206458D01*
X103916120Y-155186872D01*
X103920068Y-155167183D01*
X103924029Y-155147406D01*
X103927995Y-155127554D01*
X103931954Y-155107641D01*
X103935898Y-155087680D01*
X103939817Y-155067686D01*
X103943701Y-155047672D01*
X103947540Y-155027652D01*
X103951325Y-155007639D01*
X103955046Y-154987648D01*
X103958693Y-154967691D01*
X103962257Y-154947783D01*
X103965728Y-154927937D01*
X103969095Y-154908168D01*
X103972350Y-154888488D01*
X103975483Y-154868912D01*
X103978483Y-154849453D01*
X103981342Y-154830125D01*
X103984049Y-154810942D01*
X103986595Y-154791918D01*
X103988971Y-154773065D01*
X103991165Y-154754398D01*
X103993170Y-154735931D01*
X103994974Y-154717678D01*
X103996568Y-154699651D01*
X103997943Y-154681865D01*
X103999089Y-154664333D01*
X103999996Y-154647070D01*
X104000654Y-154630088D01*
X104001054Y-154613403D01*
X104001186Y-154597026D01*
X104001040Y-154580973D01*
X104000607Y-154565256D01*
X103999877Y-154549890D01*
X103998839Y-154534889D01*
X103997485Y-154520265D01*
X103995805Y-154506033D01*
X103993789Y-154492206D01*
X103991427Y-154478798D01*
X103988709Y-154465824D01*
X103985626Y-154453295D01*
X103982169Y-154441227D01*
X103978327Y-154429634D01*
X103974090Y-154418527D01*
X103969450Y-154407923D01*
X103964395Y-154397833D01*
X103958918Y-154388273D01*
X103953007Y-154379254D01*
X103946653Y-154370793D01*
X103939847Y-154362901D01*
X103932578Y-154355593D01*
X103924837Y-154348883D01*
X103916615Y-154342784D01*
X103907901Y-154337309D01*
X103898686Y-154332474D01*
X103888960Y-154328291D01*
X103878714Y-154324774D01*
X103867937Y-154321936D01*
X103856620Y-154319793D01*
X103844754Y-154318356D01*
X103832328Y-154317641D01*
X103819333Y-154317660D01*
X103805759Y-154318427D01*
X103791597Y-154319957D01*
X103776836Y-154322263D01*
X103761467Y-154325358D01*
X103745480Y-154329257D01*
X103728867Y-154333972D01*
X103711615Y-154339519D01*
X103693717Y-154345909D01*
X103675163Y-154353158D01*
X103655942Y-154361279D01*
X103636045Y-154370286D01*
X103615463Y-154380192D01*
X103594185Y-154391011D01*
X103572202Y-154402756D01*
X103549504Y-154415443D01*
X103526081Y-154429083D01*
X103501925Y-154443692D01*
X103501925Y-154443692D01*
G37*
G36*
X102371330Y-153040099D02*
X102369380Y-153055597D01*
X102366571Y-153070334D01*
X102362933Y-153084335D01*
X102358492Y-153097624D01*
X102353278Y-153110224D01*
X102347319Y-153122160D01*
X102340642Y-153133455D01*
X102333277Y-153144135D01*
X102325252Y-153154223D01*
X102316594Y-153163743D01*
X102307333Y-153172719D01*
X102297496Y-153181176D01*
X102287111Y-153189138D01*
X102276208Y-153196628D01*
X102264814Y-153203670D01*
X102252957Y-153210290D01*
X102240667Y-153216510D01*
X102227970Y-153222356D01*
X102214896Y-153227851D01*
X102201473Y-153233019D01*
X102187728Y-153237885D01*
X102173691Y-153242472D01*
X102159390Y-153246804D01*
X102144852Y-153250907D01*
X102130107Y-153254803D01*
X102115182Y-153258518D01*
X102100106Y-153262074D01*
X102084906Y-153265497D01*
X102069612Y-153268809D01*
X102054252Y-153272037D01*
X102038854Y-153275202D01*
X102023445Y-153278331D01*
X102008056Y-153281446D01*
X101992712Y-153284572D01*
X101977444Y-153287733D01*
X101962280Y-153290953D01*
X101947247Y-153294256D01*
X101932373Y-153297667D01*
X101917688Y-153301209D01*
X101903220Y-153304906D01*
X101888996Y-153308783D01*
X101875045Y-153312864D01*
X101861396Y-153317172D01*
X101848076Y-153321733D01*
X101835114Y-153326570D01*
X101822538Y-153331706D01*
X101810377Y-153337168D01*
X101798659Y-153342977D01*
X101787411Y-153349159D01*
X101776663Y-153355738D01*
X101766443Y-153362737D01*
X101756778Y-153370181D01*
X101747698Y-153378094D01*
X101739230Y-153386500D01*
X101731403Y-153395423D01*
X101724245Y-153404888D01*
X101717784Y-153414918D01*
X101712049Y-153425537D01*
X101707068Y-153436770D01*
X101702869Y-153448641D01*
X101699481Y-153461174D01*
X101696932Y-153474392D01*
X101695249Y-153488321D01*
X101694462Y-153502984D01*
X101694598Y-153518405D01*
X101695687Y-153534608D01*
X101697756Y-153551618D01*
X101700833Y-153569458D01*
X101704947Y-153588153D01*
X101710126Y-153607727D01*
X101716398Y-153628204D01*
X101723793Y-153649608D01*
X101732337Y-153671963D01*
X101742059Y-153695294D01*
X101771486Y-153701087D01*
X101799307Y-153707653D01*
X101825586Y-153714960D01*
X101850383Y-153722977D01*
X101873762Y-153731672D01*
X101895783Y-153741012D01*
X101916508Y-153750967D01*
X101936001Y-153761505D01*
X101954322Y-153772593D01*
X101971534Y-153784201D01*
X101987698Y-153796296D01*
X102002877Y-153808846D01*
X102017132Y-153821821D01*
X102030525Y-153835188D01*
X102043118Y-153848915D01*
X102054974Y-153862972D01*
X102066154Y-153877325D01*
X102076720Y-153891944D01*
X102086734Y-153906796D01*
X102096258Y-153921850D01*
X102105353Y-153937074D01*
X102114083Y-153952437D01*
X102122508Y-153967907D01*
X102130691Y-153983451D01*
X102138694Y-153999039D01*
X102146579Y-154014639D01*
X102154406Y-154030218D01*
X102162240Y-154045746D01*
X102170140Y-154061189D01*
X102178171Y-154076518D01*
X102186392Y-154091699D01*
X102194867Y-154106702D01*
X102203656Y-154121494D01*
X102212823Y-154136044D01*
X102222429Y-154150320D01*
X102232536Y-154164290D01*
X102243206Y-154177923D01*
X102254501Y-154191187D01*
X102266482Y-154204050D01*
X102279213Y-154216481D01*
X102292754Y-154228447D01*
X102307167Y-154239917D01*
X102322515Y-154250859D01*
X102338860Y-154261242D01*
X102356263Y-154271034D01*
X102374787Y-154280203D01*
X102394493Y-154288717D01*
X102412492Y-154292539D01*
X102429804Y-154295236D01*
X102446453Y-154296854D01*
X102462466Y-154297439D01*
X102477870Y-154297038D01*
X102492689Y-154295696D01*
X102506950Y-154293461D01*
X102520680Y-154290378D01*
X102533904Y-154286495D01*
X102546648Y-154281856D01*
X102558939Y-154276510D01*
X102570802Y-154270501D01*
X102582263Y-154263877D01*
X102593349Y-154256684D01*
X102604086Y-154248968D01*
X102614499Y-154240775D01*
X102624616Y-154232152D01*
X102634461Y-154223146D01*
X102644061Y-154213801D01*
X102653442Y-154204166D01*
X102662630Y-154194286D01*
X102671651Y-154184208D01*
X102680531Y-154173977D01*
X102689297Y-154163641D01*
X102697974Y-154153246D01*
X102706588Y-154142838D01*
X102715166Y-154132463D01*
X102723733Y-154122168D01*
X102732316Y-154111998D01*
X102740940Y-154102002D01*
X102749632Y-154092224D01*
X102758418Y-154082711D01*
X102767324Y-154073510D01*
X102776376Y-154064667D01*
X102785600Y-154056228D01*
X102795021Y-154048240D01*
X102804667Y-154040748D01*
X102814563Y-154033800D01*
X102824736Y-154027442D01*
X102835210Y-154021719D01*
X102846013Y-154016679D01*
X102857171Y-154012368D01*
X102868709Y-154008832D01*
X102880653Y-154006117D01*
X102893030Y-154004270D01*
X102905866Y-154003337D01*
X102919187Y-154003365D01*
X102933019Y-154004399D01*
X102947387Y-154006487D01*
X102962319Y-154009674D01*
X102977839Y-154014008D01*
X102993975Y-154019533D01*
X103010751Y-154026297D01*
X103028196Y-154034346D01*
X103046333Y-154043727D01*
X103065190Y-154054485D01*
X103084792Y-154066668D01*
X103105166Y-154080320D01*
X103126337Y-154095490D01*
X103148332Y-154112223D01*
X103165145Y-154115403D01*
X103182401Y-154118794D01*
X103200080Y-154122377D01*
X103218162Y-154126132D01*
X103236626Y-154130038D01*
X103255452Y-154134075D01*
X103274620Y-154138224D01*
X103294109Y-154142464D01*
X103313900Y-154146777D01*
X103333971Y-154151140D01*
X103354302Y-154155536D01*
X103374873Y-154159943D01*
X103395665Y-154164342D01*
X103416655Y-154168713D01*
X103437825Y-154173036D01*
X103459153Y-154177290D01*
X103480620Y-154181457D01*
X103502205Y-154185515D01*
X103523888Y-154189446D01*
X103545648Y-154193228D01*
X103567465Y-154196843D01*
X103589320Y-154200269D01*
X103611190Y-154203488D01*
X103633057Y-154206479D01*
X103654900Y-154209222D01*
X103676698Y-154211697D01*
X103698431Y-154213884D01*
X103720079Y-154215764D01*
X103741622Y-154217316D01*
X103763039Y-154218521D01*
X103784310Y-154219358D01*
X103805414Y-154219807D01*
X103826332Y-154219849D01*
X103847042Y-154219464D01*
X103867525Y-154218631D01*
X103887761Y-154217330D01*
X103907728Y-154215542D01*
X103927407Y-154213247D01*
X103946777Y-154210425D01*
X103965818Y-154207055D01*
X103984510Y-154203118D01*
X104002832Y-154198594D01*
X104020764Y-154193462D01*
X104038286Y-154187704D01*
X104055377Y-154181298D01*
X104072017Y-154174226D01*
X104088186Y-154166466D01*
X104103863Y-154157999D01*
X104119028Y-154148806D01*
X104133661Y-154138865D01*
X104147741Y-154128158D01*
X104161249Y-154116664D01*
X104174163Y-154104362D01*
X104186463Y-154091235D01*
X104198130Y-154077260D01*
X104209142Y-154062419D01*
X104219480Y-154046691D01*
X104229123Y-154030056D01*
X104238050Y-154012495D01*
X104246242Y-153993988D01*
X104253678Y-153974513D01*
X104260338Y-153954053D01*
X104266202Y-153932585D01*
X104271249Y-153910092D01*
X104275458Y-153886552D01*
X104278810Y-153861946D01*
X104281284Y-153836253D01*
X104282860Y-153809454D01*
X104292774Y-153779504D01*
X104301999Y-153750214D01*
X104310545Y-153721581D01*
X104318423Y-153693602D01*
X104325643Y-153666273D01*
X104332217Y-153639593D01*
X104338156Y-153613558D01*
X104343470Y-153588164D01*
X104348170Y-153563408D01*
X104352266Y-153539289D01*
X104355770Y-153515801D01*
X104358692Y-153492943D01*
X104361043Y-153470711D01*
X104362833Y-153449102D01*
X104364075Y-153428113D01*
X104364777Y-153407741D01*
X104364952Y-153387983D01*
X104364609Y-153368836D01*
X104363760Y-153350296D01*
X104362416Y-153332361D01*
X104360586Y-153315027D01*
X104358283Y-153298292D01*
X104355516Y-153282152D01*
X104352296Y-153266604D01*
X104348635Y-153251645D01*
X104344543Y-153237273D01*
X104340031Y-153223483D01*
X104335109Y-153210273D01*
X104329788Y-153197640D01*
X104324080Y-153185581D01*
X104317994Y-153174092D01*
X104311542Y-153163170D01*
X104304735Y-153152813D01*
X104297582Y-153143018D01*
X104290096Y-153133780D01*
X104282286Y-153125098D01*
X104274164Y-153116968D01*
X104265740Y-153109386D01*
X104257025Y-153102351D01*
X104248029Y-153095858D01*
X104238765Y-153089905D01*
X104229241Y-153084488D01*
X104219470Y-153079605D01*
X104209462Y-153075253D01*
X104199227Y-153071428D01*
X104188776Y-153068127D01*
X104178121Y-153065347D01*
X104167272Y-153063085D01*
X104156239Y-153061338D01*
X104145034Y-153060103D01*
X104133667Y-153059376D01*
X104122150Y-153059156D01*
X104110492Y-153059438D01*
X104098704Y-153060219D01*
X104086798Y-153061497D01*
X104074784Y-153063268D01*
X104062673Y-153065530D01*
X104050476Y-153068278D01*
X104038203Y-153071511D01*
X104025865Y-153075225D01*
X104013473Y-153079416D01*
X104001038Y-153084082D01*
X103988571Y-153089220D01*
X103976082Y-153094827D01*
X103963581Y-153100899D01*
X103951081Y-153107433D01*
X103938591Y-153114427D01*
X103926123Y-153121877D01*
X103913686Y-153129780D01*
X103901293Y-153138133D01*
X103888953Y-153146933D01*
X103876678Y-153156178D01*
X103864478Y-153165862D01*
X103852363Y-153175985D01*
X103840346Y-153186542D01*
X103828436Y-153197531D01*
X103816645Y-153208948D01*
X103804982Y-153220790D01*
X103793459Y-153233055D01*
X103782087Y-153245739D01*
X103770877Y-153258839D01*
X103759838Y-153272352D01*
X103748982Y-153286274D01*
X103738320Y-153300604D01*
X103727863Y-153315337D01*
X103717621Y-153330471D01*
X103707604Y-153346003D01*
X103697825Y-153361928D01*
X103688293Y-153378246D01*
X103679019Y-153394951D01*
X103670015Y-153412042D01*
X103661290Y-153429514D01*
X103652856Y-153447366D01*
X103644723Y-153465594D01*
X103636903Y-153484194D01*
X103629405Y-153503164D01*
X103622241Y-153522501D01*
X103615422Y-153542201D01*
X103608957Y-153562262D01*
X103602859Y-153582680D01*
X103597138Y-153603452D01*
X103572321Y-153608249D01*
X103548124Y-153612558D01*
X103524539Y-153616386D01*
X103501556Y-153619741D01*
X103479167Y-153622633D01*
X103457364Y-153625068D01*
X103436136Y-153627055D01*
X103415476Y-153628603D01*
X103395374Y-153629718D01*
X103375822Y-153630409D01*
X103356810Y-153630685D01*
X103338331Y-153630552D01*
X103320375Y-153630021D01*
X103302932Y-153629097D01*
X103285996Y-153627790D01*
X103269555Y-153626108D01*
X103253603Y-153624058D01*
X103238129Y-153621650D01*
X103223126Y-153618890D01*
X103208583Y-153615787D01*
X103194493Y-153612349D01*
X103180846Y-153608584D01*
X103167634Y-153604500D01*
X103154848Y-153600105D01*
X103142479Y-153595408D01*
X103130518Y-153590416D01*
X103118956Y-153585138D01*
X103107784Y-153579581D01*
X103096994Y-153573754D01*
X103086577Y-153567664D01*
X103076524Y-153561321D01*
X103066826Y-153554731D01*
X103057473Y-153547903D01*
X103048459Y-153540845D01*
X103039772Y-153533565D01*
X103031406Y-153526072D01*
X103023350Y-153518373D01*
X103015596Y-153510476D01*
X103008136Y-153502389D01*
X103000959Y-153494121D01*
X102994058Y-153485680D01*
X102987424Y-153477074D01*
X102981047Y-153468310D01*
X102974920Y-153459397D01*
X102969032Y-153450342D01*
X102963376Y-153441155D01*
X102957942Y-153431843D01*
X102952721Y-153422414D01*
X102947705Y-153412876D01*
X102942885Y-153403238D01*
X102938252Y-153393507D01*
X102933797Y-153383692D01*
X102929512Y-153373800D01*
X102925386Y-153363839D01*
X102921413Y-153353818D01*
X102917582Y-153343746D01*
X102913885Y-153333629D01*
X102910314Y-153323476D01*
X102906858Y-153313294D01*
X102903510Y-153303094D01*
X102900260Y-153292881D01*
X102897101Y-153282664D01*
X102894022Y-153272452D01*
X102891015Y-153262253D01*
X102888071Y-153252073D01*
X102885181Y-153241923D01*
X102882337Y-153231809D01*
X102879530Y-153221740D01*
X102876750Y-153211723D01*
X102873989Y-153201768D01*
X102871239Y-153191881D01*
X102868490Y-153182072D01*
X102865733Y-153172347D01*
X102862959Y-153162716D01*
X102860161Y-153153187D01*
X102857328Y-153143766D01*
X102854452Y-153134463D01*
X102851525Y-153125286D01*
X102848537Y-153116242D01*
X102845479Y-153107340D01*
X102842343Y-153098588D01*
X102839120Y-153089993D01*
X102835801Y-153081565D01*
X102832377Y-153073310D01*
X102828839Y-153065238D01*
X102825178Y-153057355D01*
X102821386Y-153049671D01*
X102817454Y-153042194D01*
X102813373Y-153034931D01*
X102809134Y-153027890D01*
X102804728Y-153021080D01*
X102800147Y-153014508D01*
X102795381Y-153008183D01*
X102790421Y-153002114D01*
X102785260Y-152996306D01*
X102779887Y-152990770D01*
X102774295Y-152985513D01*
X102768474Y-152980543D01*
X102762415Y-152975869D01*
X102756110Y-152971497D01*
X102749550Y-152967437D01*
X102742726Y-152963697D01*
X102735628Y-152960284D01*
X102728249Y-152957206D01*
X102720580Y-152954472D01*
X102712611Y-152952091D01*
X102704333Y-152950068D01*
X102695739Y-152948414D01*
X102686818Y-152947136D01*
X102677563Y-152946242D01*
X102667964Y-152945740D01*
X102658012Y-152945638D01*
X102647699Y-152945945D01*
X102637016Y-152946668D01*
X102625954Y-152947815D01*
X102614504Y-152949395D01*
X102602657Y-152951416D01*
X102590404Y-152953886D01*
X102577737Y-152956812D01*
X102564647Y-152960203D01*
X102551125Y-152964067D01*
X102537162Y-152968412D01*
X102522748Y-152973247D01*
X102507877Y-152978578D01*
X102492537Y-152984415D01*
X102476722Y-152990765D01*
X102460421Y-152997636D01*
X102443626Y-153005037D01*
X102426328Y-153012976D01*
X102408519Y-153021460D01*
X102390189Y-153030499D01*
X102371330Y-153040099D01*
X102371330Y-153040099D01*
G37*
D11*
X107520000Y-35100000D03*
X107530000Y-157600000D03*
D12*
X104950000Y-61800000D03*
X104950000Y-48050000D03*
X104950000Y-75550000D03*
X105000000Y-89250000D03*
X104950000Y-103000000D03*
X104950000Y-116700000D03*
X104950000Y-144200000D03*
X104950000Y-130450000D03*
M02*
