G04 #@! TF.FileFunction,Copper,L2,Bot,Signal*
%FSLAX46Y46*%
G04 Gerber Fmt 4.6, Leading zero omitted, Abs format (unit mm)*
G04 Created by KiCad (PCBNEW 4.0.1-stable) date Mittwoch, 01. Juni 2016 'u57' 17:57:12*
%MOMM*%
G01*
G04 APERTURE LIST*
%ADD10C,0.150000*%
%ADD11C,0.300000*%
%ADD12C,3.200000*%
%ADD13C,5.300000*%
%ADD14C,7.800000*%
%ADD15C,0.254000*%
G04 APERTURE END LIST*
D10*
D11*
X118053571Y-73346429D02*
X119125000Y-73346429D01*
X119339286Y-73275001D01*
X119482143Y-73132144D01*
X119553571Y-72917858D01*
X119553571Y-72775001D01*
X119553571Y-74275001D02*
X119482143Y-74132143D01*
X119410714Y-74060715D01*
X119267857Y-73989286D01*
X118839286Y-73989286D01*
X118696429Y-74060715D01*
X118625000Y-74132143D01*
X118553571Y-74275001D01*
X118553571Y-74489286D01*
X118625000Y-74632143D01*
X118696429Y-74703572D01*
X118839286Y-74775001D01*
X119267857Y-74775001D01*
X119410714Y-74703572D01*
X119482143Y-74632143D01*
X119553571Y-74489286D01*
X119553571Y-74275001D01*
X119553571Y-75417858D02*
X118053571Y-75417858D01*
X119553571Y-76060715D02*
X118767857Y-76060715D01*
X118625000Y-75989286D01*
X118553571Y-75846429D01*
X118553571Y-75632144D01*
X118625000Y-75489286D01*
X118696429Y-75417858D01*
X119553571Y-77417858D02*
X118767857Y-77417858D01*
X118625000Y-77346429D01*
X118553571Y-77203572D01*
X118553571Y-76917858D01*
X118625000Y-76775001D01*
X119482143Y-77417858D02*
X119553571Y-77275001D01*
X119553571Y-76917858D01*
X119482143Y-76775001D01*
X119339286Y-76703572D01*
X119196429Y-76703572D01*
X119053571Y-76775001D01*
X118982143Y-76917858D01*
X118982143Y-77275001D01*
X118910714Y-77417858D01*
X118553571Y-78132144D02*
X119553571Y-78132144D01*
X118696429Y-78132144D02*
X118625000Y-78203572D01*
X118553571Y-78346430D01*
X118553571Y-78560715D01*
X118625000Y-78703572D01*
X118767857Y-78775001D01*
X119553571Y-78775001D01*
X118553571Y-79489287D02*
X119553571Y-79489287D01*
X118696429Y-79489287D02*
X118625000Y-79560715D01*
X118553571Y-79703573D01*
X118553571Y-79917858D01*
X118625000Y-80060715D01*
X118767857Y-80132144D01*
X119553571Y-80132144D01*
X119482143Y-81417858D02*
X119553571Y-81275001D01*
X119553571Y-80989287D01*
X119482143Y-80846430D01*
X119339286Y-80775001D01*
X118767857Y-80775001D01*
X118625000Y-80846430D01*
X118553571Y-80989287D01*
X118553571Y-81275001D01*
X118625000Y-81417858D01*
X118767857Y-81489287D01*
X118910714Y-81489287D01*
X119053571Y-80775001D01*
X119482143Y-82060715D02*
X119553571Y-82203572D01*
X119553571Y-82489287D01*
X119482143Y-82632144D01*
X119339286Y-82703572D01*
X119267857Y-82703572D01*
X119125000Y-82632144D01*
X119053571Y-82489287D01*
X119053571Y-82275001D01*
X118982143Y-82132144D01*
X118839286Y-82060715D01*
X118767857Y-82060715D01*
X118625000Y-82132144D01*
X118553571Y-82275001D01*
X118553571Y-82489287D01*
X118625000Y-82632144D01*
X118767857Y-84489287D02*
X118767857Y-84989287D01*
X119553571Y-85203573D02*
X119553571Y-84489287D01*
X118053571Y-84489287D01*
X118053571Y-85203573D01*
X119553571Y-86060716D02*
X119482143Y-85917858D01*
X119339286Y-85846430D01*
X118053571Y-85846430D01*
X119553571Y-86846430D02*
X119482143Y-86703572D01*
X119339286Y-86632144D01*
X118053571Y-86632144D01*
X119553571Y-87417858D02*
X118553571Y-87417858D01*
X118053571Y-87417858D02*
X118125000Y-87346429D01*
X118196429Y-87417858D01*
X118125000Y-87489286D01*
X118053571Y-87417858D01*
X118196429Y-87417858D01*
X119482143Y-88703572D02*
X119553571Y-88560715D01*
X119553571Y-88275001D01*
X119482143Y-88132144D01*
X119339286Y-88060715D01*
X118767857Y-88060715D01*
X118625000Y-88132144D01*
X118553571Y-88275001D01*
X118553571Y-88560715D01*
X118625000Y-88703572D01*
X118767857Y-88775001D01*
X118910714Y-88775001D01*
X119053571Y-88060715D01*
X119482143Y-89346429D02*
X119553571Y-89489286D01*
X119553571Y-89775001D01*
X119482143Y-89917858D01*
X119339286Y-89989286D01*
X119267857Y-89989286D01*
X119125000Y-89917858D01*
X119053571Y-89775001D01*
X119053571Y-89560715D01*
X118982143Y-89417858D01*
X118839286Y-89346429D01*
X118767857Y-89346429D01*
X118625000Y-89417858D01*
X118553571Y-89560715D01*
X118553571Y-89775001D01*
X118625000Y-89917858D01*
X119482143Y-91203572D02*
X119553571Y-91060715D01*
X119553571Y-90775001D01*
X119482143Y-90632144D01*
X119339286Y-90560715D01*
X118767857Y-90560715D01*
X118625000Y-90632144D01*
X118553571Y-90775001D01*
X118553571Y-91060715D01*
X118625000Y-91203572D01*
X118767857Y-91275001D01*
X118910714Y-91275001D01*
X119053571Y-90560715D01*
X118553571Y-91917858D02*
X119553571Y-91917858D01*
X118696429Y-91917858D02*
X118625000Y-91989286D01*
X118553571Y-92132144D01*
X118553571Y-92346429D01*
X118625000Y-92489286D01*
X118767857Y-92560715D01*
X119553571Y-92560715D01*
X119482143Y-93346429D02*
X119553571Y-93346429D01*
X119696429Y-93275001D01*
X119767857Y-93203572D01*
X118196429Y-95060715D02*
X118125000Y-95132144D01*
X118053571Y-95275001D01*
X118053571Y-95632144D01*
X118125000Y-95775001D01*
X118196429Y-95846430D01*
X118339286Y-95917858D01*
X118482143Y-95917858D01*
X118696429Y-95846430D01*
X119553571Y-94989287D01*
X119553571Y-95917858D01*
X118053571Y-96846429D02*
X118053571Y-96989286D01*
X118125000Y-97132143D01*
X118196429Y-97203572D01*
X118339286Y-97275001D01*
X118625000Y-97346429D01*
X118982143Y-97346429D01*
X119267857Y-97275001D01*
X119410714Y-97203572D01*
X119482143Y-97132143D01*
X119553571Y-96989286D01*
X119553571Y-96846429D01*
X119482143Y-96703572D01*
X119410714Y-96632143D01*
X119267857Y-96560715D01*
X118982143Y-96489286D01*
X118625000Y-96489286D01*
X118339286Y-96560715D01*
X118196429Y-96632143D01*
X118125000Y-96703572D01*
X118053571Y-96846429D01*
X119553571Y-98775000D02*
X119553571Y-97917857D01*
X119553571Y-98346429D02*
X118053571Y-98346429D01*
X118267857Y-98203572D01*
X118410714Y-98060714D01*
X118482143Y-97917857D01*
X118053571Y-100060714D02*
X118053571Y-99775000D01*
X118125000Y-99632143D01*
X118196429Y-99560714D01*
X118410714Y-99417857D01*
X118696429Y-99346428D01*
X119267857Y-99346428D01*
X119410714Y-99417857D01*
X119482143Y-99489285D01*
X119553571Y-99632143D01*
X119553571Y-99917857D01*
X119482143Y-100060714D01*
X119410714Y-100132143D01*
X119267857Y-100203571D01*
X118910714Y-100203571D01*
X118767857Y-100132143D01*
X118696429Y-100060714D01*
X118625000Y-99917857D01*
X118625000Y-99632143D01*
X118696429Y-99489285D01*
X118767857Y-99417857D01*
X118910714Y-99346428D01*
D12*
X85950000Y-86925000D03*
X85950000Y-81525000D03*
X85950000Y-76125000D03*
X85950000Y-70725000D03*
X85975000Y-58025000D03*
D13*
X85950000Y-64375000D03*
X85950000Y-51675000D03*
D14*
X87850000Y-143125000D03*
X87850000Y-113925000D03*
X113900000Y-143125000D03*
X102450000Y-143125000D03*
D15*
G36*
X120715000Y-160190000D02*
X81060000Y-160190000D01*
X81060000Y-158051524D01*
X86432657Y-158051524D01*
X86733003Y-158778418D01*
X87288657Y-159335042D01*
X88015025Y-159636656D01*
X88801524Y-159637343D01*
X89528418Y-159336997D01*
X90085042Y-158781343D01*
X90386656Y-158054975D01*
X90387343Y-157268476D01*
X90086997Y-156541582D01*
X89531343Y-155984958D01*
X88804975Y-155683344D01*
X88018476Y-155682657D01*
X87291582Y-155983003D01*
X86734958Y-156538657D01*
X86433344Y-157265025D01*
X86432657Y-158051524D01*
X81060000Y-158051524D01*
X81060000Y-129681917D01*
X83522250Y-129681917D01*
X84179609Y-131272847D01*
X85395751Y-132491113D01*
X86985530Y-133151247D01*
X88706917Y-133152750D01*
X90297847Y-132495391D01*
X91516113Y-131279249D01*
X92176247Y-129689470D01*
X92177750Y-127968083D01*
X91520391Y-126377153D01*
X90304249Y-125158887D01*
X88714470Y-124498753D01*
X86993083Y-124497250D01*
X85402153Y-125154609D01*
X84183887Y-126370751D01*
X83523753Y-127960530D01*
X83522250Y-129681917D01*
X81060000Y-129681917D01*
X81060000Y-122377211D01*
X104022277Y-122377211D01*
X104656847Y-123912989D01*
X105830830Y-125089023D01*
X107365498Y-125726273D01*
X109027211Y-125727723D01*
X110562989Y-125093153D01*
X111739023Y-123919170D01*
X112376273Y-122384502D01*
X112377723Y-120722789D01*
X111743153Y-119187011D01*
X110569170Y-118010977D01*
X109034502Y-117373727D01*
X107372789Y-117372277D01*
X105837011Y-118006847D01*
X104660977Y-119180830D01*
X104023727Y-120715498D01*
X104022277Y-122377211D01*
X81060000Y-122377211D01*
X81060000Y-100481917D01*
X83522250Y-100481917D01*
X84179609Y-102072847D01*
X85395751Y-103291113D01*
X86985530Y-103951247D01*
X88706917Y-103952750D01*
X90297847Y-103295391D01*
X91516113Y-102079249D01*
X92176247Y-100489470D01*
X92176279Y-100452211D01*
X103997277Y-100452211D01*
X104631847Y-101987989D01*
X105805830Y-103164023D01*
X107340498Y-103801273D01*
X109002211Y-103802723D01*
X110537989Y-103168153D01*
X111714023Y-101994170D01*
X112351273Y-100459502D01*
X112352723Y-98797789D01*
X111718153Y-97262011D01*
X110544170Y-96085977D01*
X109009502Y-95448727D01*
X107347789Y-95447277D01*
X105812011Y-96081847D01*
X104635977Y-97255830D01*
X103998727Y-98790498D01*
X103997277Y-100452211D01*
X92176279Y-100452211D01*
X92177750Y-98768083D01*
X91520391Y-97177153D01*
X90304249Y-95958887D01*
X88714470Y-95298753D01*
X86993083Y-95297250D01*
X85402153Y-95954609D01*
X84183887Y-97170751D01*
X83523753Y-98760530D01*
X83522250Y-100481917D01*
X81060000Y-100481917D01*
X81060000Y-78552211D01*
X103997277Y-78552211D01*
X104631847Y-80087989D01*
X105805830Y-81264023D01*
X107340498Y-81901273D01*
X109002211Y-81902723D01*
X110537989Y-81268153D01*
X111714023Y-80094170D01*
X112351273Y-78559502D01*
X112352723Y-76897789D01*
X111718153Y-75362011D01*
X110544170Y-74185977D01*
X109009502Y-73548727D01*
X107347789Y-73547277D01*
X105812011Y-74181847D01*
X104635977Y-75355830D01*
X103998727Y-76890498D01*
X103997277Y-78552211D01*
X81060000Y-78552211D01*
X81060000Y-72175715D01*
X117140000Y-72175715D01*
X117140000Y-100874285D01*
X120310000Y-100874285D01*
X120310000Y-72175715D01*
X117140000Y-72175715D01*
X81060000Y-72175715D01*
X81060000Y-64964564D01*
X82972484Y-64964564D01*
X83424751Y-66059132D01*
X84261463Y-66897306D01*
X85355240Y-67351482D01*
X86539564Y-67352516D01*
X87634132Y-66900249D01*
X88472306Y-66063537D01*
X88926482Y-64969760D01*
X88927516Y-63785436D01*
X88475249Y-62690868D01*
X87638537Y-61852694D01*
X86544760Y-61398518D01*
X85360436Y-61397484D01*
X84265868Y-61849751D01*
X83427694Y-62686463D01*
X82973518Y-63780240D01*
X82972484Y-64964564D01*
X81060000Y-64964564D01*
X81060000Y-56677211D01*
X104022277Y-56677211D01*
X104656847Y-58212989D01*
X105830830Y-59389023D01*
X107365498Y-60026273D01*
X109027211Y-60027723D01*
X110562989Y-59393153D01*
X111739023Y-58219170D01*
X112376273Y-56684502D01*
X112377723Y-55022789D01*
X111743153Y-53487011D01*
X110569170Y-52310977D01*
X109034502Y-51673727D01*
X107372789Y-51672277D01*
X105837011Y-52306847D01*
X104660977Y-53480830D01*
X104023727Y-55015498D01*
X104022277Y-56677211D01*
X81060000Y-56677211D01*
X81060000Y-52264564D01*
X82972484Y-52264564D01*
X83424751Y-53359132D01*
X84261463Y-54197306D01*
X85355240Y-54651482D01*
X86539564Y-54652516D01*
X87634132Y-54200249D01*
X88472306Y-53363537D01*
X88926482Y-52269760D01*
X88927516Y-51085436D01*
X88475249Y-49990868D01*
X87638537Y-49152694D01*
X86544760Y-48698518D01*
X85360436Y-48697484D01*
X84265868Y-49149751D01*
X83427694Y-49986463D01*
X82973518Y-51080240D01*
X82972484Y-52264564D01*
X81060000Y-52264564D01*
X81060000Y-35511524D01*
X86412657Y-35511524D01*
X86713003Y-36238418D01*
X87268657Y-36795042D01*
X87995025Y-37096656D01*
X88781524Y-37097343D01*
X89508418Y-36796997D01*
X90065042Y-36241343D01*
X90366656Y-35514975D01*
X90367343Y-34728476D01*
X90066997Y-34001582D01*
X89511343Y-33444958D01*
X88784975Y-33143344D01*
X87998476Y-33142657D01*
X87271582Y-33443003D01*
X86714958Y-33998657D01*
X86413344Y-34725025D01*
X86412657Y-35511524D01*
X81060000Y-35511524D01*
X81060000Y-32360000D01*
X120715000Y-32360000D01*
X120715000Y-160190000D01*
X120715000Y-160190000D01*
G37*
X120715000Y-160190000D02*
X81060000Y-160190000D01*
X81060000Y-158051524D01*
X86432657Y-158051524D01*
X86733003Y-158778418D01*
X87288657Y-159335042D01*
X88015025Y-159636656D01*
X88801524Y-159637343D01*
X89528418Y-159336997D01*
X90085042Y-158781343D01*
X90386656Y-158054975D01*
X90387343Y-157268476D01*
X90086997Y-156541582D01*
X89531343Y-155984958D01*
X88804975Y-155683344D01*
X88018476Y-155682657D01*
X87291582Y-155983003D01*
X86734958Y-156538657D01*
X86433344Y-157265025D01*
X86432657Y-158051524D01*
X81060000Y-158051524D01*
X81060000Y-129681917D01*
X83522250Y-129681917D01*
X84179609Y-131272847D01*
X85395751Y-132491113D01*
X86985530Y-133151247D01*
X88706917Y-133152750D01*
X90297847Y-132495391D01*
X91516113Y-131279249D01*
X92176247Y-129689470D01*
X92177750Y-127968083D01*
X91520391Y-126377153D01*
X90304249Y-125158887D01*
X88714470Y-124498753D01*
X86993083Y-124497250D01*
X85402153Y-125154609D01*
X84183887Y-126370751D01*
X83523753Y-127960530D01*
X83522250Y-129681917D01*
X81060000Y-129681917D01*
X81060000Y-122377211D01*
X104022277Y-122377211D01*
X104656847Y-123912989D01*
X105830830Y-125089023D01*
X107365498Y-125726273D01*
X109027211Y-125727723D01*
X110562989Y-125093153D01*
X111739023Y-123919170D01*
X112376273Y-122384502D01*
X112377723Y-120722789D01*
X111743153Y-119187011D01*
X110569170Y-118010977D01*
X109034502Y-117373727D01*
X107372789Y-117372277D01*
X105837011Y-118006847D01*
X104660977Y-119180830D01*
X104023727Y-120715498D01*
X104022277Y-122377211D01*
X81060000Y-122377211D01*
X81060000Y-100481917D01*
X83522250Y-100481917D01*
X84179609Y-102072847D01*
X85395751Y-103291113D01*
X86985530Y-103951247D01*
X88706917Y-103952750D01*
X90297847Y-103295391D01*
X91516113Y-102079249D01*
X92176247Y-100489470D01*
X92176279Y-100452211D01*
X103997277Y-100452211D01*
X104631847Y-101987989D01*
X105805830Y-103164023D01*
X107340498Y-103801273D01*
X109002211Y-103802723D01*
X110537989Y-103168153D01*
X111714023Y-101994170D01*
X112351273Y-100459502D01*
X112352723Y-98797789D01*
X111718153Y-97262011D01*
X110544170Y-96085977D01*
X109009502Y-95448727D01*
X107347789Y-95447277D01*
X105812011Y-96081847D01*
X104635977Y-97255830D01*
X103998727Y-98790498D01*
X103997277Y-100452211D01*
X92176279Y-100452211D01*
X92177750Y-98768083D01*
X91520391Y-97177153D01*
X90304249Y-95958887D01*
X88714470Y-95298753D01*
X86993083Y-95297250D01*
X85402153Y-95954609D01*
X84183887Y-97170751D01*
X83523753Y-98760530D01*
X83522250Y-100481917D01*
X81060000Y-100481917D01*
X81060000Y-78552211D01*
X103997277Y-78552211D01*
X104631847Y-80087989D01*
X105805830Y-81264023D01*
X107340498Y-81901273D01*
X109002211Y-81902723D01*
X110537989Y-81268153D01*
X111714023Y-80094170D01*
X112351273Y-78559502D01*
X112352723Y-76897789D01*
X111718153Y-75362011D01*
X110544170Y-74185977D01*
X109009502Y-73548727D01*
X107347789Y-73547277D01*
X105812011Y-74181847D01*
X104635977Y-75355830D01*
X103998727Y-76890498D01*
X103997277Y-78552211D01*
X81060000Y-78552211D01*
X81060000Y-72175715D01*
X117140000Y-72175715D01*
X117140000Y-100874285D01*
X120310000Y-100874285D01*
X120310000Y-72175715D01*
X117140000Y-72175715D01*
X81060000Y-72175715D01*
X81060000Y-64964564D01*
X82972484Y-64964564D01*
X83424751Y-66059132D01*
X84261463Y-66897306D01*
X85355240Y-67351482D01*
X86539564Y-67352516D01*
X87634132Y-66900249D01*
X88472306Y-66063537D01*
X88926482Y-64969760D01*
X88927516Y-63785436D01*
X88475249Y-62690868D01*
X87638537Y-61852694D01*
X86544760Y-61398518D01*
X85360436Y-61397484D01*
X84265868Y-61849751D01*
X83427694Y-62686463D01*
X82973518Y-63780240D01*
X82972484Y-64964564D01*
X81060000Y-64964564D01*
X81060000Y-56677211D01*
X104022277Y-56677211D01*
X104656847Y-58212989D01*
X105830830Y-59389023D01*
X107365498Y-60026273D01*
X109027211Y-60027723D01*
X110562989Y-59393153D01*
X111739023Y-58219170D01*
X112376273Y-56684502D01*
X112377723Y-55022789D01*
X111743153Y-53487011D01*
X110569170Y-52310977D01*
X109034502Y-51673727D01*
X107372789Y-51672277D01*
X105837011Y-52306847D01*
X104660977Y-53480830D01*
X104023727Y-55015498D01*
X104022277Y-56677211D01*
X81060000Y-56677211D01*
X81060000Y-52264564D01*
X82972484Y-52264564D01*
X83424751Y-53359132D01*
X84261463Y-54197306D01*
X85355240Y-54651482D01*
X86539564Y-54652516D01*
X87634132Y-54200249D01*
X88472306Y-53363537D01*
X88926482Y-52269760D01*
X88927516Y-51085436D01*
X88475249Y-49990868D01*
X87638537Y-49152694D01*
X86544760Y-48698518D01*
X85360436Y-48697484D01*
X84265868Y-49149751D01*
X83427694Y-49986463D01*
X82973518Y-51080240D01*
X82972484Y-52264564D01*
X81060000Y-52264564D01*
X81060000Y-35511524D01*
X86412657Y-35511524D01*
X86713003Y-36238418D01*
X87268657Y-36795042D01*
X87995025Y-37096656D01*
X88781524Y-37097343D01*
X89508418Y-36796997D01*
X90065042Y-36241343D01*
X90366656Y-35514975D01*
X90367343Y-34728476D01*
X90066997Y-34001582D01*
X89511343Y-33444958D01*
X88784975Y-33143344D01*
X87998476Y-33142657D01*
X87271582Y-33443003D01*
X86714958Y-33998657D01*
X86413344Y-34725025D01*
X86412657Y-35511524D01*
X81060000Y-35511524D01*
X81060000Y-32360000D01*
X120715000Y-32360000D01*
X120715000Y-160190000D01*
M02*
